<svg width="750" height="750"> 

   <rect x="50" y="200" width="750" height="750" fill="#c3c3ff"/>
<path
       transform="matrix(4.9999827,0,0,5.0001525,-1074.0975,184.40707)"
       clip-path="url(#SVG_CP_1)"
       d="M 287.99336,56.40387 L 287.75337,56.16386 L 287.51337,56.40387 L 287.27338,56.40387 L 287.03338,56.64389 L 286.79339,56.64389 L 286.55339,56.88391 L 286.3134,56.88391 L 286.3134,56.64389 L 286.0734,56.64389 L 286.0734,56.40387 L 286.3134,56.40387 L 286.0734,56.40387 L 285.83341,55.92384 L 285.59342,55.92384 L 285.35342,55.92384 L 285.11343,56.16386 L 284.87343,56.16386 L 284.63344,56.16386 L 284.63344,56.40387 L 284.39344,56.16386 L 284.39344,55.92384 L 283.91345,56.16386 L 283.67346,56.16386 L 283.43347,56.16386 L 283.43347,55.92384 L 283.19347,55.92384 L 283.19347,55.68382 L 282.95348,55.68382 L 282.71348,55.68382 L 282.71348,55.44381 L 282.23349,55.92384 L 281.9935,56.16386 L 281.7535,56.16386 L 281.7535,55.92384 L 281.51351,56.16386 L 281.7535,56.40387 L 281.9935,56.64389 L 281.7535,56.88391 L 281.27352,56.88391 L 281.03352,56.64389 L 281.03352,56.40387 L 280.79353,56.64389 L 280.55353,56.64389 L 280.79353,56.40387 L 280.55353,56.40387 L 280.31354,56.40387 L 280.07354,56.64389 L 279.83355,56.88391 L 279.83355,57.12392 L 279.59355,57.36394 L 279.35356,57.12392 L 279.11356,56.88391 L 279.11356,56.64389 L 279.35356,56.64389 L 279.11356,56.40387 L 278.87357,56.40387 L 278.63358,56.40387 L 278.87357,56.16386 L 278.63358,55.92384 L 278.39358,56.16386 L 278.39358,56.40387 L 278.15359,55.92384 L 278.15359,56.16386 L 277.91359,55.92384 L 277.6736,56.16386 L 277.6736,56.40387 L 277.91359,56.40387 L 278.15359,56.40387 L 278.15359,56.64389 L 278.15359,56.88391 L 278.15359,57.12392 L 278.15359,57.60396 L 277.91359,57.60396 L 278.15359,57.84397 L 277.91359,57.84397 L 277.4336,58.08399 L 277.4336,58.32401 L 277.4336,58.56402 L 277.19361,58.32401 L 276.95361,58.08399 L 276.71362,58.32401 L 276.47363,58.08399 L 276.23363,58.08399 L 276.23363,58.32401 L 276.23363,58.56402 L 275.99364,58.32401 L 275.75364,58.56402 L 275.75364,58.80404 L 275.51365,58.80404 L 275.51365,59.04406 L 275.75364,59.28407 L 275.51365,59.28407 L 275.27365,59.28407 L 275.03366,59.52409 L 274.79366,59.76411 L 274.55367,59.52409 L 274.31368,59.52409 L 274.07368,59.52409 L 273.83369,59.76411 L 273.3537,59.28407 L 273.1137,59.04406 L 272.63371,59.04406 L 272.39372,59.28407 L 272.15373,59.28407 L 272.15373,59.04406 L 271.91373,59.04406 L 271.91373,59.28407 L 271.67374,59.28407 L 271.67374,59.04406 L 271.43374,58.80404 L 271.19375,58.80404 L 271.19375,59.04406 L 271.19375,59.28407 L 270.95375,59.28407 L 270.71376,59.52409 L 270.47376,59.52409 L 270.23377,59.52409 L 269.99378,59.52409 L 269.75378,60.24414 L 269.75378,60.48415 L 269.51379,60.48415 L 269.27379,60.48415 L 269.0338,60.48415 L 269.0338,60.24414 L 268.55381,60.24414 L 268.55381,60.00412 L 268.31381,60.00412 L 268.31381,60.24414 L 267.83382,60.24414 L 267.59383,60.24414 L 267.59383,60.48415 L 266.63385,60.72417 L 266.39386,60.72417 L 266.15386,60.96419 L 266.15386,61.2042 L 266.15386,61.44422 L 265.91387,61.44422 L 265.91387,61.68424 L 265.91387,61.92425 L 265.67387,62.16427 L 265.43388,62.40429 L 265.43388,62.16427 L 265.43388,62.40429 L 265.19389,62.6443 L 265.19389,62.88432 L 264.95389,62.88432 L 264.7139,62.88432 L 264.7139,62.6443 L 264.4739,62.88432 L 264.23391,63.12434 L 263.99391,63.12434 L 263.75392,63.36435 L 263.51392,63.36435 L 263.51392,63.12434 L 263.51392,63.36435 L 263.27393,63.12434 L 263.27393,62.88432 L 263.03394,62.88432 L 263.03394,62.6443 L 263.27393,62.40429 L 263.27393,62.16427 L 263.03394,62.16427 L 262.79394,62.16427 L 262.79394,61.68424 L 262.55395,61.44422 L 262.55395,61.2042 L 262.55395,61.44422 L 262.55395,61.68424 L 262.55395,61.44422 L 262.55395,61.68424 L 262.55395,62.16427 L 262.31395,62.16427 L 262.31395,62.40429 L 262.07396,62.88432 L 261.83396,62.88432 L 262.07396,63.12434 L 262.31395,63.12434 L 262.55395,63.36435 L 262.55395,63.60437 L 262.31395,63.60437 L 262.07396,63.60437 L 261.83396,63.60437 L 261.83396,63.84439 L 261.83396,64.0844 L 261.83396,64.32442 L 261.83396,64.56443 L 261.59397,64.32442 L 261.59397,64.56443 L 261.59397,64.32442 L 261.35397,64.0844 L 261.11398,64.0844 L 260.87399,64.32442 L 260.87399,64.0844 L 261.11398,64.0844 L 261.11398,63.84439 L 261.11398,63.60437 L 261.35397,63.60437 L 261.35397,63.36435 L 261.35397,63.12434 L 260.87399,62.88432 L 260.63399,62.88432 L 260.87399,62.88432 L 260.63399,62.88432 L 260.63399,63.12434 L 260.63399,63.36435 L 260.394,63.36435 L 260.154,63.60437 L 259.91401,63.84439 L 259.67401,64.0844 L 259.67401,63.84439 L 259.67401,64.0844 L 259.43402,64.32442 L 259.67401,64.32442 L 259.43402,64.32442 L 259.67401,64.56443 L 259.91401,64.80445 L 259.91401,65.04447 L 259.67401,65.04447 L 259.43402,65.28448 L 259.43402,65.04447 L 259.19402,65.28448 L 259.19402,65.04447 L 258.95403,65.04447 L 258.71404,65.28448 L 258.71404,65.5245 L 258.71404,65.76452 L 258.47404,65.76452 L 257.99405,65.76452 L 257.75406,66.00453 L 257.75406,66.24455 L 257.75406,66.00453 L 257.75406,66.24455 L 257.99405,66.48457 L 257.99405,66.72458 L 257.75406,66.9646 L 257.51406,67.20462 L 257.27407,67.20462 L 257.03407,67.44463 L 257.27407,67.92467 L 257.03407,67.68465 L 257.03407,67.44463 L 256.79408,67.44463 L 256.79408,67.68465 L 256.55408,67.68465 L 256.31409,67.44463 L 256.31409,67.68465 L 256.0741,67.44463 L 256.0741,67.68465 L 256.0741,67.44463 L 256.0741,67.20462 L 256.31409,67.20462 L 256.0741,66.9646 L 256.31409,66.9646 L 256.31409,66.72458 L 256.55408,66.72458 L 256.55408,66.48457 L 256.31409,66.00453 L 256.0741,65.28448 L 255.8341,65.28448 L 255.59411,65.28448 L 255.35411,65.28448 L 255.35411,65.5245 L 255.11412,65.5245 L 254.87412,65.28448 L 254.87412,65.04447 L 255.11412,65.04447 L 255.35411,64.80445 L 255.35411,64.56443 L 255.11412,64.56443 L 255.35411,64.32442 L 255.59411,64.32442 L 255.8341,64.0844 L 255.8341,63.84439 L 255.8341,63.60437 L 255.8341,63.36435 L 255.8341,63.60437 L 256.0741,63.36435 L 256.31409,63.36435 L 256.55408,62.6443 L 256.55408,62.40429 L 256.55408,62.16427 L 256.55408,61.92425 L 256.55408,61.68424 L 256.55408,61.44422 L 256.79408,61.44422 L 256.79408,61.2042 L 257.03407,60.48415 L 256.79408,60.48415 L 257.03407,60.48415 L 257.03407,60.24414 L 257.27407,60.00412 L 257.51406,60.00412 L 257.75406,59.52409 L 257.75406,59.28407 L 257.99405,59.28407 L 258.23405,59.04406 L 258.23405,58.80404 L 258.47404,58.56402 L 258.71404,58.56402 L 258.71404,58.80404 L 258.95403,58.80404 L 259.19402,58.56402 L 259.43402,58.32401 L 259.43402,58.08399 L 259.67401,58.08399 L 259.91401,57.84397 L 259.91401,57.60396 L 259.91401,57.36394 L 260.154,57.36394 L 260.154,57.12392 L 260.63399,56.88391 L 260.87399,56.88391 L 260.87399,57.12392 L 261.11398,57.12392 L 261.35397,57.12392 L 261.35397,57.36394 L 261.35397,56.88391 L 261.11398,56.88391 L 261.35397,56.88391 L 261.35397,56.64389 L 261.11398,56.64389 L 261.11398,56.40387 L 261.35397,56.16386 L 261.35397,55.92384 L 261.59397,55.92384 L 261.83396,55.92384 L 261.83396,55.68382 L 261.83396,55.44381 L 261.83396,55.92384 L 261.59397,55.92384 L 261.35397,55.68382 L 261.35397,55.44381 L 261.11398,55.44381 L 261.35397,55.44381 L 261.11398,55.68382 L 260.87399,56.40387 L 260.63399,56.64389 L 260.394,56.64389 L 260.394,56.40387 L 260.154,56.40387 L 260.154,56.16386 L 260.154,56.40387 L 259.91401,56.40387 L 259.67401,56.64389 L 259.91401,56.64389 L 259.67401,56.88391 L 259.67401,57.12392 L 259.43402,57.12392 L 259.19402,57.36394 L 259.19402,57.12392 L 259.19402,56.88391 L 258.95403,56.88391 L 258.95403,56.64389 L 258.71404,56.88391 L 258.71404,57.12392 L 258.47404,57.12392 L 258.47404,57.36394 L 258.47404,57.12392 L 258.23405,57.12392 L 257.99405,57.12392 L 257.99405,56.88391 L 257.99405,57.12392 L 257.75406,56.88391 L 257.75406,57.12392 L 257.75406,56.64389 L 257.75406,56.40387 L 257.51406,56.16386 L 257.51406,56.40387 L 257.27407,56.40387 L 257.27407,56.64389 L 257.03407,56.64389 L 256.79408,56.64389 L 256.79408,56.88391 L 256.79408,56.64389 L 256.55408,56.64389 L 256.31409,56.88391 L 256.31409,56.64389 L 256.0741,56.88391 L 256.31409,56.88391 L 256.31409,57.12392 L 256.55408,57.12392 L 256.55408,57.36394 L 256.55408,57.60396 L 256.31409,57.84397 L 256.0741,57.84397 L 255.8341,57.84397 L 255.59411,58.08399 L 255.8341,58.32401 L 255.8341,58.56402 L 255.59411,58.56402 L 255.35411,58.56402 L 255.35411,58.32401 L 255.11412,57.84397 L 254.87412,57.84397 L 254.63413,57.84397 L 254.63413,58.08399 L 254.63413,57.84397 L 254.63413,57.60396 L 254.39413,57.36394 L 254.39413,57.12392 L 254.39413,56.88391 L 254.15414,56.40387 L 253.91415,56.40387 L 253.91415,56.16386 L 253.67415,56.16386 L 253.91415,56.16386 L 253.67415,56.16386 L 253.67415,55.92384 L 253.91415,55.92384 L 254.15414,55.68382 L 254.15414,55.92384 L 254.39413,55.92384 L 254.63413,55.68382 L 254.87412,55.68382 L 255.11412,55.44381 L 255.11412,55.20379 L 255.11412,54.72376 L 255.11412,54.48374 L 254.87412,54.24373 L 254.63413,54.24373 L 254.63413,54.00371 L 254.39413,54.24373 L 254.39413,54.00371 L 254.15414,54.00371 L 254.15414,53.76369 L 254.15414,53.52368 L 253.91415,53.52368 L 254.15414,53.28366 L 253.91415,53.28366 L 253.91415,53.04364 L 254.15414,52.80363 L 253.91415,52.80363 L 254.15414,52.56361 L 254.39413,52.32359 L 254.15414,52.32359 L 254.15414,52.08358 L 254.39413,52.08358 L 254.63413,51.84356 L 254.87412,51.84356 L 254.63413,51.84356 L 254.63413,51.60354 L 254.39413,51.60354 L 254.15414,51.60354 L 254.15414,51.36353 L 253.91415,51.60354 L 253.91415,51.36353 L 253.67415,51.36353 L 253.67415,51.12351 L 253.67415,50.8835 L 253.43416,50.8835 L 253.43416,50.64348 L 253.43416,50.40346 L 253.43416,50.16345 L 253.19416,49.92343 L 253.19416,50.16345 L 253.19416,49.92343 L 252.95417,49.4434 L 252.95417,49.68341 L 252.95417,49.92343 L 252.95417,50.16345 L 252.95417,50.40346 L 253.19416,50.64348 L 252.95417,50.8835 L 253.19416,51.12351 L 252.95417,51.12351 L 252.71417,51.12351 L 252.47418,51.12351 L 252.23418,51.12351 L 252.47418,50.64348 L 252.23418,50.64348 L 251.99419,50.64348 L 252.23418,50.40346 L 251.99419,50.16345 L 251.7542,50.16345 L 251.5142,50.40346 L 251.7542,50.40346 L 251.5142,50.64348 L 251.27421,50.64348 L 250.79422,50.8835 L 250.55422,51.12351 L 250.79422,51.36353 L 250.79422,51.60354 L 250.55422,51.84356 L 250.55422,52.32359 L 250.31423,52.56361 L 250.31423,52.08358 L 250.07423,52.08358 L 250.07423,51.84356 L 250.31423,51.36353 L 250.31423,51.12351 L 250.07423,50.8835 L 249.83424,50.8835 L 249.83424,50.64348 L 249.59425,50.64348 L 249.83424,50.40346 L 249.83424,50.16345 L 250.07423,50.16345 L 249.83424,49.92343 L 250.07423,50.16345 L 250.07423,49.92343 L 250.31423,49.92343 L 250.31423,49.4434 L 250.55422,49.20338 L 250.79422,48.72335 L 251.03421,48.72335 L 250.79422,48.48333 L 251.03421,48.24331 L 251.03421,48.0033 L 251.03421,47.76328 L 251.03421,47.52326 L 251.03421,47.28325 L 250.79422,47.04323 L 250.79422,47.28325 L 250.55422,47.28325 L 250.55422,47.04323 L 250.55422,46.08317 L 250.31423,45.84315 L 250.07423,45.84315 L 250.07423,45.60313 L 250.07423,45.36312 L 250.31423,45.1231 L 250.31423,45.36312 L 250.31423,45.84315 L 250.55422,45.60313 L 250.55422,45.84315 L 250.79422,45.84315 L 250.79422,45.60313 L 251.03421,45.60313 L 251.27421,45.36312 L 251.5142,44.88308 L 251.5142,44.64307 L 251.5142,44.40305 L 251.5142,44.16303 L 251.5142,43.92302 L 251.7542,43.92302 L 251.7542,44.16303 L 251.99419,43.92302 L 252.23418,44.16303 L 252.47418,44.16303 L 252.47418,43.92302 L 252.47418,43.683 L 252.47418,43.44298 L 252.47418,43.20297 L 252.71417,43.44298 L 252.71417,43.683 L 252.95417,43.683 L 253.19416,43.683 L 253.19416,43.92302 L 253.19416,44.16303 L 253.43416,44.16303 L 253.67415,44.16303 L 253.67415,43.683 L 253.43416,43.683 L 253.67415,43.683 L 253.91415,43.683 L 254.15414,43.683 L 254.15414,43.44298 L 254.39413,42.96295 L 254.39413,42.72293 L 254.15414,42.72293 L 254.15414,42.48292 L 254.39413,42.00289 L 254.39413,41.76287 L 254.15414,42.00289 L 254.15414,42.2429 L 253.91415,42.2429 L 253.91415,42.48292 L 253.67415,42.48292 L 253.67415,42.72293 L 253.43416,42.72293 L 253.43416,42.96295 L 253.19416,42.72293 L 253.19416,42.48292 L 253.19416,42.72293 L 252.95417,42.48292 L 253.19416,42.48292 L 253.19416,42.00289 L 252.95417,41.76287 L 252.95417,41.52285 L 252.95417,41.28284 L 253.19416,41.28284 L 252.95417,41.52285 L 253.19416,41.52285 L 253.43416,41.52285 L 253.43416,41.28284 L 253.67415,41.28284 L 253.67415,41.04282 L 253.91415,41.04282 L 253.91415,40.56279 L 254.15414,40.32277 L 254.15414,40.08275 L 254.15414,40.32277 L 254.39413,40.32277 L 254.39413,40.56279 L 254.39413,40.32277 L 254.39413,40.56279 L 254.63413,40.56279 L 254.87412,40.32277 L 254.87412,40.08275 L 255.11412,40.08275 L 255.35411,40.08275 L 255.35411,39.84274 L 255.59411,40.08275 L 255.8341,40.08275 L 255.8341,40.32277 L 256.0741,40.56279 L 256.31409,40.32277 L 256.0741,40.32277 L 256.31409,40.32277 L 256.55408,40.32277 L 256.55408,40.8028 L 256.55408,40.56279 L 256.79408,40.56279 L 256.79408,40.8028 L 257.03407,40.8028 L 257.03407,40.56279 L 257.27407,40.56279 L 257.51406,40.56279 L 258.23405,40.32277 L 258.23405,39.84274 L 258.23405,39.60272 L 258.47404,39.3627 L 258.47404,39.60272 L 258.71404,39.60272 L 258.71404,39.3627 L 258.95403,39.12269 L 259.19402,39.12269 L 258.95403,38.88267 L 258.95403,38.64265 L 259.19402,38.88267 L 259.43402,39.12269 L 259.19402,39.3627 L 259.43402,39.3627 L 259.67401,39.60272 L 259.67401,39.3627 L 259.91401,39.3627 L 259.91401,39.12269 L 260.154,39.12269 L 260.394,39.12269 L 260.63399,39.12269 L 260.87399,39.12269 L 260.87399,38.88267 L 260.87399,39.12269 L 261.11398,39.12269 L 261.35397,38.88267 L 261.11398,38.64265 L 261.11398,38.40264 L 260.87399,38.64265 L 260.87399,38.16262 L 260.87399,37.9226 L 260.87399,37.68259 L 260.63399,37.68259 L 260.394,37.68259 L 260.154,37.68259 L 260.154,37.44257 L 259.91401,37.20256 L 259.91401,36.96254 L 260.394,36.72252 L 260.63399,36.72252 L 260.87399,36.48251 L 261.11398,36.48251 L 261.35397,36.72252 L 261.59397,36.96254 L 261.83396,36.96254 L 261.59397,36.72252 L 261.83396,36.48251 L 262.07396,36.48251 L 262.31395,36.48251 L 262.31395,36.24249 L 262.31395,36.00247 L 262.31395,35.76246 L 262.31395,35.52244 L 262.55395,35.52244 L 262.79394,35.52244 L 263.03394,35.52244 L 263.27393,35.76246 L 263.51392,35.76246 L 263.51392,35.52244 L 263.75392,35.52244 L 263.75392,35.76246 L 263.99391,35.52244 L 263.99391,35.76246 L 263.99391,35.52244 L 264.23391,35.76246 L 264.23391,35.52244 L 264.23391,35.28242 L 264.23391,34.80239 L 264.4739,34.80239 L 264.4739,34.56237 L 264.7139,34.56237 L 264.7139,34.80239 L 264.7139,35.28242 L 264.95389,35.28242 L 265.19389,35.52244 L 265.43388,35.52244 L 265.19389,35.52244 L 265.43388,35.76246 L 265.43388,36.00247 L 265.67387,36.00247 L 265.67387,36.24249 L 265.67387,36.00247 L 265.91387,36.24249 L 265.91387,36.48251 L 266.15386,36.48251 L 266.39386,36.48251 L 266.63385,36.48251 L 266.87385,36.72252 L 267.11384,36.96254 L 267.59383,36.96254 L 267.83382,36.72252 L 267.83382,36.96254 L 268.07382,37.20256 L 268.55381,37.20256 L 269.27379,36.72252 L 269.75378,36.72252 L 270.23377,36.48251 L 270.71376,36.24249 L 270.95375,36.24249 L 271.19375,36.24249 L 271.19375,36.00247 L 271.43374,36.24249 L 271.67374,36.00247 L 271.67374,36.24249 L 271.91373,36.24249 L 272.39372,36.24249 L 272.39372,36.48251 L 272.63371,36.48251 L 273.1137,36.48251 L 273.83369,36.24249 L 273.83369,36.00247 L 274.07368,36.00247 L 274.31368,36.00247 L 274.31368,35.76246 L 274.55367,35.52244 L 274.79366,35.04241 L 274.55367,35.04241 L 274.79366,35.04241 L 274.55367,35.04241 L 274.79366,34.80239 L 275.03366,34.80239 L 274.79366,35.04241 L 275.03366,35.04241 L 275.27365,35.04241 L 275.27365,34.80239 L 275.51365,34.80239 L 275.27365,34.80239 L 275.51365,34.80239 L 275.75364,34.80239 L 275.75364,34.56237 L 275.75364,34.32236 L 275.99364,34.32236 L 276.23363,34.32236 L 276.23363,34.08234 L 276.47363,33.84232 L 276.47363,34.08234 L 276.71362,34.08234 L 276.95361,34.08234 L 276.95361,34.32236 L 277.19361,34.56237 L 277.4336,34.32236 L 277.4336,34.08234 L 277.19361,34.08234 L 277.19361,33.84232 L 277.4336,33.84232 L 277.19361,33.84232 L 277.4336,33.84232 L 277.6736,33.84232 L 277.4336,33.60231 L 277.91359,33.84232 L 277.6736,34.08234 L 277.6736,34.32236 L 277.91359,34.56237 L 277.91359,34.80239 L 277.91359,34.56237 L 277.6736,34.56237 L 277.4336,34.56237 L 277.4336,34.80239 L 277.6736,34.80239 L 277.6736,35.04241 L 277.91359,35.28242 L 277.91359,35.52244 L 277.91359,35.76246 L 278.15359,35.76246 L 278.39358,35.52244 L 278.39358,35.76246 L 278.63358,35.76246 L 278.63358,35.52244 L 278.87357,35.52244 L 279.11356,35.52244 L 278.87357,35.28242 L 279.11356,35.28242 L 278.87357,35.04241 L 279.11356,35.04241 L 278.87357,35.04241 L 279.11356,34.80239 L 279.35356,34.56237 L 279.11356,34.56237 L 279.35356,34.56237 L 279.35356,34.08234 L 279.11356,34.08234 L 278.87357,34.08234 L 279.11356,33.84232 L 279.35356,33.84232 L 279.11356,33.60231 L 279.35356,33.36229 L 279.59355,33.36229 L 279.35356,33.36229 L 279.59355,33.36229 L 279.83355,33.36229 L 280.07354,33.36229 L 280.31354,33.36229 L 280.55353,33.60231 L 280.55353,33.36229 L 280.55353,33.60231 L 280.55353,33.84232 L 280.55353,34.08234 L 280.79353,34.08234 L 281.03352,34.08234 L 281.27352,34.08234 L 281.51351,34.08234 L 281.51351,34.32236 L 281.51351,34.56237 L 281.7535,34.80239 L 281.9935,35.04241 L 281.9935,35.28242 L 281.7535,35.28242 L 281.9935,35.76246 L 281.9935,35.52244 L 282.23349,35.76246 L 282.47349,36.00247 L 282.71348,36.24249 L 282.95348,36.48251 L 283.19347,36.48251 L 282.95348,36.00247 L 283.19347,36.24249 L 282.95348,35.76246 L 282.71348,35.52244 L 282.95348,35.28242 L 283.19347,35.28242 L 283.19347,35.04241 L 282.95348,35.04241 L 282.95348,34.80239 L 282.95348,34.56237 L 282.95348,34.32236 L 282.71348,34.08234 L 282.95348,34.08234 L 282.95348,33.84232 L 283.19347,33.60231 L 283.19347,33.36229 L 283.43347,33.36229 L 283.67346,33.12228 L 283.91345,33.12228 L 284.39344,33.12228 L 284.39344,32.88226 L 284.15345,32.88226 L 283.91345,32.88226 L 283.91345,32.64224 L 283.67346,32.64224 L 283.43347,32.64224 L 283.43347,32.88226 L 283.19347,32.88226 L 282.95348,32.64224 L 282.47349,32.40223 L 282.23349,32.64224 L 282.47349,32.88226 L 282.23349,32.88226 L 281.9935,32.64224 L 281.7535,32.64224 L 281.9935,32.64224 L 281.7535,32.40223 L 281.27352,32.16221 L 281.27352,31.92219 L 281.03352,31.92219 L 281.03352,32.16221 L 281.03352,31.92219 L 280.79353,31.92219 L 280.31354,31.92219 L 280.07354,31.68218 L 280.31354,31.68218 L 280.55353,31.68218 L 280.55353,31.44216 L 280.31354,31.44216 L 280.31354,31.20214 L 280.55353,31.20214 L 281.03352,31.20214 L 281.27352,30.96213 L 281.27352,31.20214 L 281.51351,30.96213 L 281.51351,31.20214 L 281.7535,31.20214 L 281.7535,30.96213 L 281.9935,30.96213 L 282.23349,30.96213 L 282.47349,31.20214 L 282.47349,30.96213 L 282.71348,31.20214 L 282.95348,31.20214 L 283.19347,31.20214 L 283.43347,31.20214 L 283.67346,31.20214 L 283.67346,30.96213 L 283.67346,31.20214 L 283.91345,31.20214 L 283.91345,30.96213 L 284.15345,30.96213 L 284.15345,30.72211 L 284.39344,30.72211 L 284.63344,30.48209 L 284.63344,30.24208 L 284.87343,30.00206 L 284.87343,29.76204 L 284.63344,29.76204 L 284.87343,29.76204 L 284.87343,29.52203 L 285.11343,29.52203 L 284.87343,29.52203 L 285.11343,29.28201 L 285.11343,29.04199 L 284.87343,29.04199 L 284.63344,29.04199 L 284.63344,29.28201 L 284.63344,29.04199 L 284.87343,29.28201 L 284.63344,29.52203 L 284.63344,29.76204 L 284.39344,29.76204 L 284.15345,30.00206 L 283.91345,30.24208 L 283.67346,30.00206 L 283.67346,30.24208 L 283.91345,30.24208 L 283.91345,30.48209 L 283.67346,30.48209 L 283.43347,30.48209 L 283.43347,30.24208 L 283.19347,30.24208 L 283.19347,30.48209 L 282.95348,30.48209 L 282.71348,30.48209 L 282.71348,30.72211 L 282.47349,30.48209 L 282.71348,30.48209 L 282.71348,30.24208 L 282.47349,30.48209 L 282.23349,30.48209 L 282.23349,30.24208 L 282.47349,30.00206 L 282.47349,29.76204 L 282.23349,29.76204 L 282.23349,30.00206 L 281.9935,30.00206 L 281.9935,30.24208 L 281.9935,30.48209 L 281.7535,30.48209 L 281.7535,30.72211 L 281.27352,30.72211 L 281.27352,30.96213 L 281.03352,30.96213 L 280.79353,30.96213 L 280.79353,30.72211 L 280.55353,30.72211 L 280.31354,30.72211 L 280.31354,30.48209 L 280.07354,30.72211 L 279.83355,30.72211 L 279.59355,30.96213 L 279.35356,30.72211 L 279.59355,30.72211 L 279.35356,30.48209 L 279.59355,30.48209 L 279.59355,30.24208 L 279.83355,30.24208 L 280.07354,30.00206 L 280.07354,29.76204 L 280.31354,29.28201 L 280.07354,29.28201 L 280.07354,29.04199 L 279.83355,29.04199 L 280.07354,29.04199 L 280.07354,28.80198 L 279.83355,28.80198 L 280.07354,28.32195 L 280.31354,28.32195 L 280.55353,28.32195 L 280.79353,28.32195 L 281.03352,28.08193 L 281.03352,27.84191 L 280.79353,27.6019 L 280.55353,27.6019 L 280.55353,27.36188 L 280.55353,27.12186 L 280.31354,27.12186 L 280.31354,26.88185 L 280.31354,26.64183 L 280.55353,26.64183 L 280.79353,26.64183 L 280.79353,26.88185 L 281.03352,27.12186 L 281.51351,27.12186 L 281.51351,26.88185 L 281.51351,27.12186 L 281.7535,27.36188 L 282.23349,27.12186 L 282.47349,26.88185 L 282.71348,26.88185 L 282.95348,26.64183 L 283.19347,26.40181 L 283.43347,26.1618 L 283.43347,25.92178 L 283.67346,25.92178 L 283.67346,25.68176 L 283.91345,25.68176 L 283.91345,25.44175 L 284.15345,25.44175 L 284.39344,25.20173 L 284.15345,25.20173 L 284.15345,24.96171 L 284.39344,24.96171 L 284.39344,25.20173 L 284.39344,24.96171 L 284.39344,24.7217 L 284.63344,24.7217 L 284.63344,24.96171 L 284.87343,25.20173 L 285.35342,24.96171 L 285.59342,24.96171 L 285.59342,24.7217 L 285.59342,24.48168 L 285.83341,24.48168 L 286.0734,24.24167 L 286.3134,24.24167 L 286.3134,24.00165 L 286.55339,24.00165 L 286.79339,24.00165 L 286.79339,23.76163 L 287.03338,24.00165 L 287.03338,23.76163 L 287.03338,23.52162 L 287.27338,23.52162 L 287.27338,23.2816 L 287.27338,23.04158 L 287.51337,23.04158 L 287.27338,23.2816 L 287.51337,23.2816 L 287.51337,23.52162 L 287.51337,23.76163 L 287.51337,24.00165 L 287.75337,24.00165 L 287.99336,24.00165 L 287.99336,23.76163 L 288.47335,23.76163 L 288.47335,23.2816 L 288.23335,23.52162 L 287.99336,23.2816 L 287.99336,23.52162 L 287.75337,23.2816 L 287.99336,23.2816 L 287.75337,23.2816 L 287.99336,23.04158 L 287.75337,23.04158 L 287.99336,23.04158 L 287.75337,22.80157 L 287.99336,22.80157 L 287.99336,22.56155 L 287.99336,22.32153 L 288.23335,22.56155 L 288.23335,22.32153 L 287.99336,22.32153 L 288.23335,22.08152 L 287.99336,21.8415 L 288.23335,22.08152 L 288.23335,21.8415 L 288.23335,21.60148 L 288.47335,21.60148 L 288.47335,21.36147 L 288.71334,21.36147 L 288.95334,21.36147 L 289.19333,21.36147 L 289.43333,21.36147 L 289.67332,21.36147 L 289.91332,21.60148 L 290.15331,21.60148 L 290.3933,21.60148 L 290.87329,21.36147 L 290.87329,21.12145 L 291.35328,21.12145 L 291.59328,20.88143 L 291.83327,20.64142 L 291.59328,20.4014 L 292.07327,20.4014 L 292.31326,20.4014 L 292.55326,20.4014 L 292.55326,20.16138 L 292.79325,20.16138 L 292.55326,19.92137 L 292.79325,19.68135 L 293.03324,19.44134 L 293.03324,19.20132 L 293.27324,19.44134 L 293.51323,19.44134 L 293.99322,19.44134 L 294.23322,19.20132 L 294.47321,19.68135 L 294.23322,19.68135 L 294.23322,19.92137 L 294.23322,20.16138 L 294.23322,20.4014 L 294.23322,20.64142 L 293.99322,20.64142 L 293.99322,20.88143 L 294.23322,21.12145 L 294.47321,21.12145 L 294.47321,21.36147 L 294.47321,21.60148 L 294.47321,21.8415 L 294.23322,21.60148 L 293.99322,21.60148 L 293.75323,21.36147 L 293.75323,21.12145 L 293.75323,21.36147 L 293.75323,21.60148 L 293.99322,21.60148 L 293.99322,21.8415 L 293.75323,21.8415 L 293.75323,22.08152 L 293.75323,22.32153 L 293.51323,22.32153 L 293.51323,22.56155 L 293.75323,22.56155 L 293.51323,22.56155 L 293.27324,22.56155 L 293.27324,22.80157 L 293.75323,22.80157 L 293.75323,23.04158 L 293.75323,23.2816 L 293.51323,23.04158 L 293.27324,23.04158 L 293.03324,23.2816 L 292.79325,23.2816 L 293.03324,23.52162 L 293.27324,23.52162 L 293.51323,23.52162 L 293.75323,23.76163 L 293.75323,23.52162 L 293.99322,23.76163 L 293.99322,23.52162 L 294.23322,23.2816 L 294.47321,23.2816 L 294.47321,23.52162 L 294.71321,23.52162 L 294.71321,23.2816 L 294.71321,23.04158 L 294.47321,23.04158 L 294.47321,22.80157 L 294.23322,22.80157 L 294.23322,22.56155 L 293.99322,22.08152 L 294.47321,21.8415 L 294.71321,22.08152 L 294.9532,22.08152 L 295.19319,22.08152 L 294.9532,22.08152 L 294.71321,22.08152 L 294.9532,22.32153 L 294.71321,22.32153 L 294.9532,22.32153 L 294.9532,22.56155 L 294.9532,22.32153 L 295.43319,22.32153 L 295.19319,22.32153 L 295.43319,22.56155 L 295.19319,22.56155 L 295.67318,22.32153 L 295.67318,22.56155 L 295.67318,22.32153 L 295.43319,22.32153 L 295.43319,22.08152 L 295.19319,22.08152 L 295.19319,21.8415 L 295.19319,21.60148 L 295.43319,21.60148 L 295.67318,21.60148 L 295.91318,21.60148 L 295.67318,21.36147 L 295.67318,21.12145 L 295.91318,21.12145 L 295.91318,21.36147 L 296.15317,21.36147 L 296.15317,21.12145 L 296.39317,20.88143 L 296.63316,20.88143 L 296.87316,20.88143 L 296.87316,20.64142 L 297.11315,20.64142 L 297.35314,20.64142 L 297.59314,20.4014 L 297.83313,20.4014 L 298.07313,20.4014 L 298.31312,20.4014 L 298.31312,20.16138 L 298.55312,20.16138 L 298.55312,19.68135 L 298.79311,19.68135 L 299.2731,19.44134 L 299.51309,19.44134 L 299.51309,18.72129 L 299.51309,18.9613 L 299.75309,18.9613 L 300.23308,19.44134 L 299.99308,19.44134 L 299.99308,19.68135 L 299.99308,19.44134 L 299.75309,19.68135 L 299.75309,19.92137 L 299.2731,20.16138 L 299.51309,20.4014 L 299.2731,20.4014 L 299.51309,20.64142 L 299.2731,20.64142 L 299.03311,20.88143 L 299.03311,21.36147 L 299.03311,21.60148 L 299.03311,21.8415 L 298.79311,21.8415 L 298.79311,22.08152 L 298.79311,22.32153 L 298.79311,22.56155 L 299.03311,22.56155 L 298.79311,22.80157 L 298.79311,23.04158 L 298.55312,23.04158 L 298.31312,22.80157 L 298.55312,23.2816 L 298.55312,23.52162 L 298.79311,23.76163 L 299.03311,24.24167 L 299.03311,24.48168 L 298.79311,24.7217 L 298.55312,24.48168 L 298.55312,24.7217 L 298.31312,24.48168 L 298.31312,24.7217 L 298.31312,24.96171 L 298.07313,25.20173 L 298.07313,25.44175 L 297.83313,25.44175 L 297.59314,25.44175 L 297.83313,25.68176 L 298.07313,25.92178 L 297.83313,25.92178 L 298.07313,26.1618 L 297.83313,26.1618 L 297.83313,26.40181 L 298.07313,26.40181 L 298.07313,26.88185 L 298.07313,27.12186 L 298.07313,27.36188 L 297.83313,27.12186 L 297.35314,27.12186 L 297.11315,27.36188 L 297.35314,27.36188 L 297.35314,27.6019 L 297.11315,27.84191 L 297.11315,28.08193 L 296.87316,28.08193 L 297.11315,28.32195 L 296.87316,28.32195 L 297.11315,28.32195 L 296.87316,28.32195 L 296.87316,28.56196 L 297.11315,28.56196 L 297.11315,28.80198 L 296.87316,29.04199 L 297.11315,29.04199 L 297.11315,29.28201 L 297.11315,29.52203 L 297.11315,29.76204 L 297.11315,30.00206 L 296.87316,30.00206 L 296.63316,30.24208 L 296.87316,30.48209 L 296.39317,30.96213 L 296.39317,31.44216 L 296.15317,31.44216 L 296.15317,31.68218 L 296.15317,31.92219 L 295.91318,32.40223 L 295.91318,32.64224 L 295.67318,32.64224 L 295.67318,32.40223 L 295.19319,32.88226 L 294.9532,33.12228 L 295.19319,33.12228 L 294.9532,33.12228 L 295.19319,33.36229 L 294.9532,33.60231 L 294.71321,34.32236 L 294.23322,34.32236 L 293.99322,34.32236 L 293.51323,34.08234 L 293.27324,33.84232 L 293.27324,34.08234 L 293.03324,33.84232 L 292.55326,34.32236 L 292.55326,34.56237 L 292.31326,34.56237 L 292.31326,34.80239 L 292.55326,34.80239 L 292.79325,35.28242 L 292.55326,35.52244 L 292.79325,36.24249 L 292.55326,36.72252 L 292.31326,36.96254 L 292.07327,37.20256 L 291.83327,37.68259 L 291.59328,37.9226 L 291.11329,38.16262 L 290.87329,38.64265 L 290.6333,38.64265 L 290.87329,39.12269 L 291.35328,39.12269 L 291.35328,39.3627 L 291.11329,40.56279 L 290.6333,41.28284 L 290.6333,41.52285 L 289.91332,42.48292 L 290.15331,42.96295 L 290.3933,43.20297 L 290.15331,43.683 L 290.3933,44.64307 L 290.3933,45.1231 L 290.6333,45.84315 L 290.87329,46.32318 L 291.11329,46.5632 L 291.11329,46.80321 L 290.87329,47.04323 L 290.15331,47.52326 L 290.3933,47.76328 L 290.6333,48.24331 L 290.6333,48.48333 L 290.6333,48.96336 L 290.87329,49.92343 L 290.87329,50.40346 L 291.11329,50.8835 L 291.11329,51.36353 L 291.11329,52.32359 L 290.6333,53.04364 L 290.15331,53.28366 L 289.91332,53.52368 L 290.15331,54.24373 L 289.43333,54.72376 L 289.43333,54.96378 L 289.19333,55.20379 L 288.71334,55.20379 L 288.71334,55.44381 L 288.47335,55.44381 L 288.47335,55.68382 L 288.23335,55.92384 L 288.23335,56.16386 L 287.99336,56.40387 z "
       id="path2588"
       style="fill:red;fill-rule:evenodd;stroke:#000000;stroke-opacity:1;stroke-width:0.07999892000000000;stroke-miterlimit:4;stroke-dasharray:none;fill-opacity:1" />
    <path
       transform="matrix(4.9999827,0,0,5.0001525,-1074.0975,184.40707)"
       clip-path="url(#SVG_CP_1)"
       d="M 263.03394,80.88556 L 263.27393,80.64554 L 263.27393,80.16551 L 263.51392,79.92549 L 263.51392,80.16551 L 263.75392,80.16551 L 263.99391,79.92549 L 263.99391,79.68547 L 264.23391,79.92549 L 264.23391,79.68547 L 264.23391,79.92549 L 263.99391,79.92549 L 263.99391,80.16551 L 263.99391,79.92549 L 263.99391,80.16551 L 264.23391,79.92549 L 264.23391,80.16551 L 264.23391,79.92549 L 264.4739,79.92549 L 264.4739,79.68547 L 264.4739,79.44546 L 264.4739,79.68547 L 264.7139,79.44546 L 264.7139,79.68547 L 264.7139,79.44546 L 264.95389,79.44546 L 265.19389,79.44546 L 265.43388,79.44546 L 265.43388,79.20544 L 265.43388,78.96542 L 265.43388,78.72541 L 265.67387,78.72541 L 265.67387,78.96542 L 265.91387,78.96542 L 265.91387,78.72541 L 265.91387,78.96542 L 265.91387,78.72541 L 266.15386,78.72541 L 266.39386,78.72541 L 266.63385,78.24537 L 266.63385,78.00536 L 266.87385,78.00536 L 266.87385,77.76534 L 267.11384,77.76534 L 267.35384,77.76534 L 267.59383,77.76534 L 267.83382,78.00536 L 267.83382,77.76534 L 268.07382,77.76534 L 268.31381,78.00536 L 268.31381,77.76534 L 268.07382,77.76534 L 268.07382,77.52533 L 268.31381,77.52533 L 268.31381,77.28531 L 268.31381,77.04529 L 268.07382,76.80528 L 268.07382,77.04529 L 268.07382,76.80528 L 268.31381,76.32524 L 268.55381,76.32524 L 268.31381,76.08523 L 268.55381,75.84521 L 268.31381,75.60519 L 268.55381,75.36518 L 268.31381,75.36518 L 268.07382,75.36518 L 268.07382,75.12516 L 267.83382,75.36518 L 267.59383,75.60519 L 267.59383,75.84521 L 267.83382,75.84521 L 267.83382,76.32524 L 267.35384,76.32524 L 267.35384,76.56526 L 267.11384,76.32524 L 266.87385,76.56526 L 266.87385,76.80528 L 267.11384,76.80528 L 267.11384,77.04529 L 267.11384,77.28531 L 266.87385,77.52533 L 266.39386,77.52533 L 266.39386,77.76534 L 266.15386,77.76534 L 265.91387,78.00536 L 265.67387,77.76534 L 265.67387,78.00536 L 265.43388,78.00536 L 265.19389,78.00536 L 265.19389,77.52533 L 265.19389,77.76534 L 264.95389,77.76534 L 264.7139,77.76534 L 264.7139,77.52533 L 264.7139,77.76534 L 264.4739,78.00536 L 264.7139,78.00536 L 264.4739,78.24537 L 263.99391,78.24537 L 263.99391,78.48539 L 263.75392,78.72541 L 263.51392,78.48539 L 263.03394,78.48539 L 263.27393,78.48539 L 263.03394,78.48539 L 263.03394,78.72541 L 263.27393,78.72541 L 263.03394,78.72541 L 263.03394,78.96542 L 262.79394,78.96542 L 262.79394,79.20544 L 262.79394,78.96542 L 262.55395,78.96542 L 262.31395,78.48539 L 262.07396,78.48539 L 262.07396,78.72541 L 261.83396,78.96542 L 261.59397,78.72541 L 261.35397,78.48539 L 260.87399,78.48539 L 260.87399,78.72541 L 260.63399,78.96542 L 260.63399,78.72541 L 260.394,78.72541 L 260.63399,78.00536 L 260.63399,77.76534 L 260.87399,77.28531 L 261.11398,76.80528 L 260.87399,76.56526 L 261.11398,76.56526 L 261.11398,76.32524 L 261.11398,76.56526 L 261.35397,76.80528 L 261.35397,77.04529 L 261.59397,77.28531 L 261.83396,77.52533 L 261.83396,77.76534 L 262.07396,78.00536 L 262.07396,77.76534 L 262.07396,77.52533 L 262.07396,77.28531 L 262.07396,77.04529 L 262.07396,76.80528 L 262.31395,76.32524 L 262.07396,76.32524 L 262.07396,76.08523 L 262.07396,75.84521 L 261.83396,75.84521 L 262.07396,75.60519 L 261.83396,75.60519 L 261.83396,75.36518 L 261.59397,75.36518 L 261.83396,75.12516 L 262.07396,75.12516 L 262.07396,75.36518 L 262.31395,75.36518 L 262.55395,75.36518 L 262.79394,75.36518 L 262.79394,75.60519 L 263.03394,75.84521 L 263.27393,75.84521 L 263.51392,75.84521 L 263.75392,75.60519 L 263.99391,75.60519 L 263.99391,75.36518 L 264.23391,75.36518 L 264.23391,75.12516 L 264.4739,74.88514 L 264.4739,74.64513 L 264.4739,74.40511 L 264.7139,74.40511 L 264.95389,73.92508 L 264.95389,74.16509 L 264.95389,73.92508 L 265.19389,73.68506 L 265.43388,73.68506 L 265.43388,73.44504 L 265.91387,73.20503 L 266.15386,73.44504 L 266.15386,73.20503 L 266.39386,73.20503 L 266.15386,72.96501 L 266.15386,73.20503 L 266.15386,72.96501 L 266.39386,72.96501 L 266.39386,72.725 L 266.63385,72.96501 L 267.11384,72.24496 L 267.35384,72.24496 L 267.59383,72.00495 L 267.35384,72.00495 L 267.35384,72.24496 L 267.35384,72.00495 L 267.35384,72.24496 L 267.11384,72.24496 L 266.87385,72.24496 L 266.63385,72.24496 L 266.39386,72.24496 L 266.63385,72.00495 L 266.39386,71.76493 L 266.39386,71.52491 L 266.15386,71.76493 L 265.91387,71.76493 L 265.91387,72.00495 L 265.67387,72.24496 L 265.43388,72.24496 L 264.95389,72.48498 L 264.7139,72.48498 L 264.4739,72.96501 L 264.23391,72.96501 L 264.23391,73.20503 L 263.99391,73.20503 L 263.75392,73.44504 L 263.51392,73.20503 L 263.27393,72.96501 L 263.03394,72.96501 L 262.79394,72.96501 L 262.55395,72.725 L 262.55395,72.96501 L 262.31395,72.96501 L 262.31395,73.20503 L 262.07396,73.44504 L 262.07396,73.20503 L 261.83396,73.44504 L 261.59397,73.44504 L 261.83396,73.20503 L 261.59397,73.20503 L 261.59397,72.96501 L 261.35397,72.96501 L 261.35397,72.725 L 261.11398,72.24496 L 260.87399,72.24496 L 260.63399,72.24496 L 260.63399,72.00495 L 260.63399,71.76493 L 260.87399,71.76493 L 260.87399,71.52491 L 260.63399,71.52491 L 260.87399,71.52491 L 260.87399,71.2849 L 260.87399,70.80486 L 260.63399,70.56485 L 260.63399,70.32483 L 260.394,70.32483 L 260.154,70.32483 L 259.91401,70.08481 L 259.67401,70.08481 L 259.67401,70.32483 L 259.43402,70.56485 L 259.19402,70.56485 L 259.19402,70.32483 L 259.19402,70.56485 L 258.95403,70.08481 L 259.19402,69.8448 L 259.19402,69.60478 L 258.95403,69.60478 L 259.19402,69.36476 L 259.43402,69.36476 L 259.67401,69.60478 L 259.67401,69.36476 L 259.67401,69.60478 L 259.91401,69.60478 L 260.394,69.36476 L 260.394,69.12475 L 260.63399,69.36476 L 260.63399,69.12475 L 260.87399,69.12475 L 260.63399,68.88473 L 260.63399,69.12475 L 260.63399,68.88473 L 260.87399,68.64472 L 260.87399,68.88473 L 261.11398,68.64472 L 261.11398,68.88473 L 261.35397,68.64472 L 261.35397,68.88473 L 261.59397,69.12475 L 261.35397,69.36476 L 261.59397,69.60478 L 261.35397,69.8448 L 261.59397,69.8448 L 261.35397,69.8448 L 261.11398,70.08481 L 261.11398,70.32483 L 260.87399,70.32483 L 261.11398,70.80486 L 261.35397,70.80486 L 261.59397,70.56485 L 261.59397,70.32483 L 261.59397,70.56485 L 261.83396,70.56485 L 261.59397,70.32483 L 261.83396,70.32483 L 261.83396,70.56485 L 262.07396,70.56485 L 262.07396,70.32483 L 262.07396,70.56485 L 262.31395,70.32483 L 262.31395,70.56485 L 262.55395,70.80486 L 262.55395,70.56485 L 262.55395,70.32483 L 262.55395,70.08481 L 262.31395,70.08481 L 262.31395,69.8448 L 262.31395,69.60478 L 262.31395,69.36476 L 262.55395,69.36476 L 262.31395,69.12475 L 262.55395,68.88473 L 262.55395,69.12475 L 262.79394,69.12475 L 263.03394,69.12475 L 263.03394,68.88473 L 263.27393,68.88473 L 263.03394,68.88473 L 262.79394,68.88473 L 262.79394,68.64472 L 262.79394,68.4047 L 262.55395,68.64472 L 262.55395,68.4047 L 262.79394,68.4047 L 262.79394,68.16468 L 262.79394,67.92467 L 263.03394,67.92467 L 262.79394,67.92467 L 263.03394,67.68465 L 262.79394,67.68465 L 262.55395,67.92467 L 262.55395,68.16468 L 262.55395,67.92467 L 262.55395,67.44463 L 262.55395,67.20462 L 262.55395,66.9646 L 262.31395,66.72458 L 262.31395,66.48457 L 262.31395,66.24455 L 262.55395,66.24455 L 262.79394,66.48457 L 262.55395,66.72458 L 262.79394,66.72458 L 262.79394,66.48457 L 262.79394,66.24455 L 262.55395,66.48457 L 262.55395,66.24455 L 262.55395,66.00453 L 262.55395,65.76452 L 262.79394,65.76452 L 262.79394,65.5245 L 262.79394,65.76452 L 263.27393,65.76452 L 263.51392,65.5245 L 263.75392,65.76452 L 263.51392,65.5245 L 263.75392,65.28448 L 263.75392,65.5245 L 263.75392,65.28448 L 263.99391,65.28448 L 263.99391,65.04447 L 263.99391,64.80445 L 263.99391,65.04447 L 264.23391,65.04447 L 264.4739,65.04447 L 264.4739,64.80445 L 264.4739,65.04447 L 264.4739,64.80445 L 264.4739,64.56443 L 264.23391,64.32442 L 264.4739,64.0844 L 264.4739,63.84439 L 264.7139,63.84439 L 264.7139,63.60437 L 264.95389,63.36435 L 264.95389,63.12434 L 265.19389,63.12434 L 265.43388,62.88432 L 265.67387,62.40429 L 265.91387,62.16427 L 266.15386,61.68424 L 265.91387,61.68424 L 265.91387,61.44422 L 266.15386,61.44422 L 266.15386,61.2042 L 266.15386,60.96419 L 266.39386,60.72417 L 266.63385,60.72417 L 267.59383,60.48415 L 267.59383,60.24414 L 267.83382,60.24414 L 268.31381,60.24414 L 268.31381,60.00412 L 268.55381,60.00412 L 268.55381,60.24414 L 269.0338,60.24414 L 269.0338,60.48415 L 269.27379,60.48415 L 269.51379,60.48415 L 269.75378,60.48415 L 269.75378,60.24414 L 269.99378,59.52409 L 270.23377,59.52409 L 270.47376,59.52409 L 270.71376,59.52409 L 270.95375,59.28407 L 271.19375,59.28407 L 271.19375,59.04406 L 271.19375,58.80404 L 271.43374,58.80404 L 271.67374,59.04406 L 271.67374,59.28407 L 271.91373,59.28407 L 271.91373,59.04406 L 272.15373,59.04406 L 272.15373,59.28407 L 272.39372,59.28407 L 272.63371,59.04406 L 273.1137,59.04406 L 273.3537,59.28407 L 273.83369,59.76411 L 274.07368,59.52409 L 274.31368,59.52409 L 274.55367,59.52409 L 274.79366,59.76411 L 275.03366,59.52409 L 275.27365,59.28407 L 275.51365,59.28407 L 275.75364,59.28407 L 275.51365,59.04406 L 275.51365,58.80404 L 275.75364,58.80404 L 275.75364,58.56402 L 275.99364,58.32401 L 276.23363,58.56402 L 276.23363,58.32401 L 276.23363,58.08399 L 276.47363,58.08399 L 276.71362,58.32401 L 276.95361,58.08399 L 277.19361,58.32401 L 277.4336,58.56402 L 277.4336,58.32401 L 277.4336,58.08399 L 277.91359,57.84397 L 278.15359,57.84397 L 277.91359,57.60396 L 278.15359,57.60396 L 278.15359,57.12392 L 278.15359,56.88391 L 278.15359,56.64389 L 278.15359,56.40387 L 277.91359,56.40387 L 277.6736,56.40387 L 277.6736,56.16386 L 277.91359,55.92384 L 278.15359,56.16386 L 278.15359,55.92384 L 278.39358,56.40387 L 278.39358,56.16386 L 278.63358,55.92384 L 278.87357,56.16386 L 278.63358,56.40387 L 278.87357,56.40387 L 279.11356,56.40387 L 279.35356,56.64389 L 279.11356,56.64389 L 279.11356,56.88391 L 279.35356,57.12392 L 279.59355,57.36394 L 279.83355,57.12392 L 279.83355,56.88391 L 280.07354,56.64389 L 280.31354,56.40387 L 280.55353,56.40387 L 280.79353,56.40387 L 280.55353,56.64389 L 280.79353,56.64389 L 281.03352,56.40387 L 281.03352,56.64389 L 281.27352,56.88391 L 281.7535,56.88391 L 281.9935,56.64389 L 281.7535,56.40387 L 281.51351,56.16386 L 281.7535,55.92384 L 281.7535,56.16386 L 281.9935,56.16386 L 282.23349,55.92384 L 282.71348,55.44381 L 282.71348,55.68382 L 282.95348,55.68382 L 283.19347,55.68382 L 283.19347,55.92384 L 283.43347,55.92384 L 283.43347,56.16386 L 283.67346,56.16386 L 283.91345,56.16386 L 284.39344,55.92384 L 284.39344,56.16386 L 284.63344,56.40387 L 284.63344,56.16386 L 284.87343,56.16386 L 285.11343,56.16386 L 285.35342,55.92384 L 285.59342,55.92384 L 285.83341,55.92384 L 286.0734,56.40387 L 286.3134,56.40387 L 286.0734,56.40387 L 286.0734,56.64389 L 286.3134,56.64389 L 286.3134,56.88391 L 286.55339,56.88391 L 286.79339,56.64389 L 287.03338,56.64389 L 287.27338,56.40387 L 287.51337,56.40387 L 287.75337,56.16386 L 287.99336,56.40387 L 288.23335,56.40387 L 288.47335,56.64389 L 288.71334,56.40387 L 288.95334,56.40387 L 289.19333,56.64389 L 289.43333,56.64389 L 288.95334,57.12392 L 288.71334,57.60396 L 288.47335,57.84397 L 288.47335,58.80404 L 288.47335,59.04406 L 288.95334,59.52409 L 289.19333,60.24414 L 289.43333,60.24414 L 289.43333,60.48415 L 289.67332,60.72417 L 290.15331,60.96419 L 290.6333,61.2042 L 291.59328,61.68424 L 291.83327,61.68424 L 291.59328,61.92425 L 291.83327,62.40429 L 291.59328,62.6443 L 291.35328,62.6443 L 291.35328,62.88432 L 291.11329,63.12434 L 290.87329,63.36435 L 290.87329,63.60437 L 290.87329,64.0844 L 290.6333,65.04447 L 290.6333,65.28448 L 290.6333,65.76452 L 290.3933,65.76452 L 290.3933,66.00453 L 290.15331,66.24455 L 290.15331,66.48457 L 290.15331,66.72458 L 289.91332,67.20462 L 289.43333,67.44463 L 288.95334,67.44463 L 288.95334,67.68465 L 288.47335,67.68465 L 288.23335,67.68465 L 287.75337,67.44463 L 287.51337,67.44463 L 287.27338,67.68465 L 287.27338,67.92467 L 287.03338,68.16468 L 287.03338,68.64472 L 286.79339,68.64472 L 286.55339,68.64472 L 286.3134,68.4047 L 286.0734,68.16468 L 285.83341,68.16468 L 285.59342,68.4047 L 285.35342,68.16468 L 285.11343,68.16468 L 284.63344,67.92467 L 284.39344,68.16468 L 283.91345,67.92467 L 283.43347,67.92467 L 283.19347,67.92467 L 282.95348,68.16468 L 282.47349,67.68465 L 282.47349,67.44463 L 282.23349,67.20462 L 281.9935,67.44463 L 281.7535,67.44463 L 281.7535,67.68465 L 281.27352,67.92467 L 280.79353,68.64472 L 280.55353,68.4047 L 280.31354,68.4047 L 280.07354,68.4047 L 279.83355,68.64472 L 279.35356,68.88473 L 279.35356,69.12475 L 279.11356,69.12475 L 279.11356,69.36476 L 279.11356,69.60478 L 278.63358,69.60478 L 278.63358,69.8448 L 278.39358,70.08481 L 278.15359,70.32483 L 277.91359,70.08481 L 277.4336,70.08481 L 277.19361,70.08481 L 276.95361,70.08481 L 276.95361,70.32483 L 276.71362,70.56485 L 276.23363,70.32483 L 276.71362,71.04488 L 276.95361,71.04488 L 276.95361,71.52491 L 276.95361,71.76493 L 276.95361,72.24496 L 276.95361,72.48498 L 277.19361,72.96501 L 277.4336,74.64513 L 277.4336,74.88514 L 277.19361,75.12516 L 277.4336,75.60519 L 277.19361,75.84521 L 277.19361,76.08523 L 277.4336,76.08523 L 277.6736,76.32524 L 277.6736,76.56526 L 278.15359,76.80528 L 278.15359,77.04529 L 278.15359,77.28531 L 278.39358,77.28531 L 278.63358,77.28531 L 278.87357,77.28531 L 278.87357,77.76534 L 278.63358,78.00536 L 278.63358,78.48539 L 278.39358,78.72541 L 278.63358,79.20544 L 278.63358,79.44546 L 278.63358,79.92549 L 278.87357,79.92549 L 279.11356,80.16551 L 279.35356,80.16551 L 279.35356,80.40552 L 279.59355,80.64554 L 279.83355,80.64554 L 280.31354,80.64554 L 280.55353,80.40552 L 281.03352,80.40552 L 281.51351,80.40552 L 281.7535,80.40552 L 281.51351,80.64554 L 281.51351,80.88556 L 281.7535,81.12557 L 281.51351,81.36559 L 281.27352,81.36559 L 281.03352,81.60561 L 280.79353,81.60561 L 280.79353,81.84562 L 281.03352,81.84562 L 281.27352,82.08564 L 281.27352,82.32565 L 281.27352,82.80569 L 281.51351,83.0457 L 281.51351,83.28572 L 281.27352,83.28572 L 281.03352,83.52574 L 281.03352,83.76575 L 280.31354,84.00577 L 280.31354,84.24579 L 280.07354,84.4858 L 279.83355,84.72582 L 279.59355,84.72582 L 279.35356,84.72582 L 279.11356,84.4858 L 278.63358,84.72582 L 278.63358,84.96584 L 278.63358,85.20585 L 278.39358,85.20585 L 278.15359,85.20585 L 277.6736,85.44587 L 277.4336,85.44587 L 277.4336,85.68589 L 277.19361,85.68589 L 276.71362,85.9259 L 276.71362,85.68589 L 276.47363,85.9259 L 276.47363,86.40593 L 276.23363,86.64595 L 275.99364,86.40593 L 275.51365,86.40593 L 275.03366,86.40593 L 274.79366,86.88597 L 274.55367,86.88597 L 274.31368,86.64595 L 274.07368,86.64595 L 273.59369,86.88597 L 273.3537,86.88597 L 272.87371,86.40593 L 272.63371,86.40593 L 271.91373,86.40593 L 271.67374,86.40593 L 271.19375,86.40593 L 270.23377,86.40593 L 270.23377,86.64595 L 270.47376,86.88597 L 269.75378,87.366 L 269.51379,87.366 L 269.27379,87.366 L 268.7938,87.366 L 268.31381,87.366 L 267.11384,87.366 L 266.87385,87.60602 L 266.63385,87.84603 L 266.39386,88.08605 L 266.15386,88.32607 L 266.15386,88.56608 L 266.15386,89.28613 L 265.43388,89.76617 L 265.19389,89.76617 L 264.95389,90.00618 L 264.4739,90.00618 L 263.99391,90.2462 L 263.51392,90.72623 L 263.27393,90.96625 L 263.51392,91.20626 L 263.27393,91.44628 L 263.03394,91.6863 L 262.55395,92.16633 L 262.07396,92.40635 L 260.87399,92.88638 L 260.63399,93.1264 L 260.394,93.36641 L 260.394,93.60643 L 260.154,93.84645 L 259.67401,94.08646 L 259.43402,94.08646 L 259.19402,93.60643 L 259.19402,93.36641 L 259.19402,93.1264 L 259.43402,93.1264 L 259.19402,92.88638 L 259.43402,92.88638 L 259.19402,92.88638 L 259.43402,92.64636 L 259.19402,92.40635 L 259.19402,92.16633 L 259.19402,91.6863 L 259.19402,91.44628 L 259.19402,91.20626 L 259.19402,90.72623 L 259.19402,90.48622 L 259.19402,90.2462 L 259.19402,89.76617 L 259.19402,89.28613 L 259.43402,89.28613 L 259.43402,89.04612 L 259.67401,88.8061 L 259.43402,88.8061 L 259.43402,88.56608 L 259.43402,88.32607 L 259.19402,88.32607 L 259.43402,88.32607 L 259.43402,88.08605 L 259.43402,87.84603 L 259.19402,87.84603 L 259.43402,87.60602 L 259.67401,87.366 L 259.43402,87.12598 L 259.43402,86.88597 L 259.43402,86.40593 L 259.19402,86.16592 L 259.19402,85.9259 L 259.19402,85.68589 L 259.43402,85.44587 L 259.43402,84.72582 L 259.19402,84.72582 L 259.19402,84.4858 L 259.19402,84.24579 L 259.67401,84.24579 L 259.67401,84.4858 L 259.91401,84.24579 L 260.154,84.24579 L 260.394,84.00577 L 260.63399,84.00577 L 260.63399,83.76575 L 260.87399,83.76575 L 260.87399,84.00577 L 261.11398,84.24579 L 261.11398,84.4858 L 261.35397,84.4858 L 261.59397,84.24579 L 261.35397,84.00577 L 261.59397,84.00577 L 261.59397,83.76575 L 261.83396,83.52574 L 261.59397,83.28572 L 261.35397,83.0457 L 261.11398,83.0457 L 260.87399,82.80569 L 260.87399,82.56567 L 261.11398,82.56567 L 261.35397,82.80569 L 261.59397,82.56567 L 261.83396,82.32565 L 262.07396,81.84562 L 261.83396,81.36559 L 262.07396,81.36559 L 262.31395,81.36559 L 262.31395,81.12557 L 262.55395,81.36559 L 262.55395,81.12557 L 262.79394,81.12557 L 263.03394,80.88556 z M 262.07396,77.76534 L 262.31395,77.76534 L 262.07396,77.76534 z "
       id="path2626"
       style="fill:yellow;fill-rule:evenodd;stroke:#000000;stroke-opacity:1;stroke-width:0.07999892000000000;stroke-miterlimit:4;stroke-dasharray:none;fill-opacity:1" />
    <path
       transform="matrix(4.9999827,0,0,5.0001525,-1074.0975,184.40707)"
       clip-path="url(#SVG_CP_1)"
       d="M 323.03255,82.32565 L 323.03255,82.08564 L 322.79256,82.32565 L 322.79256,82.56567 L 322.55256,82.80569 L 322.55256,83.0457 L 322.79256,83.28572 L 322.79256,83.76575 L 323.03255,83.76575 L 322.79256,84.00577 L 322.55256,83.52574 L 322.07257,83.52574 L 321.59259,83.28572 L 321.35259,83.28572 L 320.8726,83.28572 L 320.63261,83.28572 L 320.39261,83.28572 L 319.91262,83.76575 L 319.67263,84.00577 L 319.91262,84.24579 L 319.43264,84.72582 L 319.19264,84.72582 L 318.47266,85.20585 L 318.23266,85.20585 L 318.23266,85.44587 L 317.99267,86.40593 L 317.99267,86.64595 L 317.75267,87.12598 L 317.51268,87.12598 L 317.27269,87.12598 L 317.03269,87.12598 L 316.7927,87.12598 L 316.7927,87.366 L 316.7927,87.60602 L 316.5527,87.60602 L 316.7927,87.60602 L 316.7927,87.84603 L 316.5527,87.84603 L 316.5527,88.08605 L 316.31271,88.08605 L 316.31271,88.32607 L 316.31271,88.56608 L 316.31271,88.8061 L 316.07271,88.8061 L 315.83272,88.8061 L 315.35273,89.04612 L 315.35273,89.28613 L 315.35273,89.52615 L 315.59272,89.76617 L 315.83272,90.00618 L 316.31271,90.00618 L 317.03269,90.00618 L 317.03269,90.72623 L 317.27269,90.96625 L 317.51268,91.20626 L 317.27269,91.20626 L 317.03269,91.6863 L 316.7927,91.92631 L 316.7927,92.16633 L 316.5527,92.40635 L 316.5527,92.64636 L 316.31271,92.64636 L 316.31271,92.88638 L 316.5527,93.36641 L 316.31271,93.60643 L 316.07271,93.60643 L 315.83272,94.08646 L 315.59272,94.08646 L 314.87274,94.08646 L 314.87274,93.84645 L 314.63275,93.84645 L 314.63275,94.08646 L 314.39275,94.08646 L 314.15276,94.08646 L 313.67277,94.08646 L 313.67277,93.60643 L 313.43277,93.1264 L 312.71279,92.64636 L 312.4728,92.64636 L 312.2328,92.40635 L 311.99281,92.40635 L 311.51282,92.40635 L 311.51282,92.88638 L 311.27282,92.88638 L 310.79283,92.64636 L 310.55284,93.1264 L 310.55284,93.36641 L 310.55284,93.60643 L 310.55284,93.84645 L 310.31285,94.08646 L 310.55284,94.08646 L 310.31285,94.32648 L 310.55284,94.32648 L 310.55284,94.5665 L 310.79283,95.04653 L 310.55284,95.04653 L 310.79283,95.28654 L 310.55284,95.52656 L 310.55284,95.76658 L 310.31285,95.76658 L 310.31285,96.00659 L 310.07285,96.72664 L 309.83286,96.72664 L 309.59286,96.72664 L 309.35287,96.96666 L 308.87288,97.20668 L 308.63288,97.20668 L 308.1529,97.20668 L 307.67291,97.44669 L 307.43291,97.68671 L 306.71293,97.68671 L 306.47293,97.92673 L 306.23294,98.16674 L 306.23294,97.92673 L 305.75295,97.92673 L 305.51296,97.92673 L 305.03297,98.16674 L 304.79297,97.68671 L 304.07299,97.92673 L 304.07299,98.16674 L 303.83299,98.40676 L 303.83299,98.64678 L 303.593,98.64678 L 303.593,98.88679 L 303.35301,99.12681 L 303.11301,99.12681 L 302.87302,99.36683 L 302.87302,99.12681 L 303.11301,98.88679 L 302.87302,98.64678 L 303.11301,98.40676 L 302.87302,98.40676 L 302.39303,97.92673 L 302.39303,97.68671 L 302.39303,97.44669 L 302.39303,97.20668 L 302.15303,96.96666 L 301.91304,96.96666 L 301.67304,96.96666 L 301.19306,96.96666 L 301.19306,96.72664 L 300.71307,96.72664 L 300.47307,96.72664 L 300.47307,96.96666 L 300.47307,97.20668 L 300.71307,97.44669 L 300.23308,97.68671 L 299.51309,97.92673 L 299.2731,97.92673 L 299.2731,98.16674 L 299.03311,97.92673 L 298.55312,98.16674 L 297.83313,97.92673 L 297.35314,98.16674 L 297.35314,97.92673 L 297.35314,97.44669 L 297.59314,97.44669 L 297.59314,97.20668 L 297.83313,96.96666 L 297.83313,96.72664 L 297.83313,96.48663 L 298.07313,96.48663 L 298.31312,96.24661 L 298.31312,96.00659 L 298.07313,96.24661 L 298.07313,96.00659 L 297.59314,96.24661 L 297.35314,96.00659 L 297.11315,96.00659 L 296.87316,96.00659 L 296.15317,96.00659 L 295.91318,95.76658 L 295.67318,95.52656 L 295.43319,95.52656 L 295.19319,95.04653 L 294.9532,94.80651 L 294.71321,94.80651 L 293.75323,95.28654 L 293.51323,95.28654 L 293.27324,95.28654 L 293.27324,95.04653 L 293.03324,95.04653 L 292.55326,95.52656 L 292.07327,95.52656 L 291.83327,95.76658 L 291.59328,95.76658 L 290.87329,95.76658 L 290.3933,95.76658 L 290.3933,96.24661 L 290.15331,96.48663 L 289.91332,96.48663 L 289.67332,96.48663 L 289.67332,96.72664 L 289.43333,96.96666 L 289.19333,96.72664 L 288.95334,96.48663 L 289.19333,96.24661 L 289.19333,95.52656 L 289.19333,94.5665 L 289.43333,94.08646 L 289.43333,93.84645 L 289.19333,93.84645 L 288.71334,93.60643 L 288.71334,93.84645 L 288.47335,94.5665 L 288.23335,95.52656 L 287.99336,95.52656 L 287.75337,95.76658 L 287.51337,95.76658 L 287.27338,96.00659 L 287.03338,95.76658 L 286.55339,95.76658 L 286.3134,95.76658 L 286.0734,96.00659 L 286.0734,96.24661 L 285.83341,96.24661 L 285.83341,96.48663 L 285.59342,96.72664 L 285.35342,97.20668 L 285.11343,97.44669 L 284.63344,97.44669 L 284.39344,97.44669 L 284.39344,97.68671 L 284.15345,97.68671 L 283.91345,97.68671 L 283.91345,97.92673 L 283.67346,97.92673 L 283.43347,97.92673 L 283.19347,97.92673 L 282.95348,98.16674 L 282.95348,97.92673 L 282.71348,98.16674 L 282.47349,98.16674 L 282.47349,97.92673 L 282.23349,97.92673 L 281.9935,97.92673 L 281.7535,98.16674 L 281.03352,97.68671 L 280.55353,97.68671 L 280.79353,96.00659 L 280.79353,95.76658 L 280.55353,95.28654 L 280.31354,95.28654 L 280.07354,95.28654 L 279.59355,95.28654 L 279.59355,95.04653 L 279.83355,95.04653 L 279.59355,95.04653 L 279.83355,94.80651 L 279.59355,94.5665 L 279.35356,94.32648 L 279.35356,94.08646 L 279.35356,93.60643 L 279.59355,93.36641 L 279.83355,92.64636 L 280.55353,92.16633 L 280.55353,91.92631 L 280.79353,91.6863 L 281.03352,91.20626 L 281.03352,90.96625 L 281.7535,90.72623 L 282.23349,90.2462 L 282.23349,90.00618 L 282.47349,90.2462 L 282.71348,90.00618 L 282.95348,90.00618 L 283.19347,90.00618 L 283.43347,89.76617 L 283.67346,89.28613 L 283.67346,88.56608 L 283.43347,88.32607 L 283.19347,87.60602 L 282.95348,87.366 L 282.71348,87.12598 L 282.47349,87.12598 L 281.9935,87.366 L 281.7535,87.12598 L 281.51351,87.12598 L 281.03352,87.60602 L 280.79353,87.60602 L 280.55353,87.12598 L 280.55353,86.64595 L 280.55353,86.40593 L 280.55353,84.96584 L 280.55353,84.72582 L 280.55353,84.4858 L 280.79353,84.4858 L 280.55353,84.4858 L 280.31354,84.00577 L 281.03352,83.76575 L 281.03352,83.52574 L 281.27352,83.28572 L 281.51351,83.28572 L 281.51351,83.0457 L 281.27352,82.80569 L 281.27352,82.32565 L 281.27352,82.08564 L 281.03352,81.84562 L 280.79353,81.84562 L 280.79353,81.60561 L 281.03352,81.60561 L 281.27352,81.36559 L 281.51351,81.36559 L 281.7535,81.12557 L 281.51351,80.88556 L 281.51351,80.64554 L 281.7535,80.40552 L 281.51351,80.40552 L 281.03352,80.40552 L 280.55353,80.40552 L 280.31354,80.64554 L 279.83355,80.64554 L 279.59355,80.64554 L 279.35356,80.40552 L 279.35356,80.16551 L 279.11356,80.16551 L 278.87357,79.92549 L 278.63358,79.92549 L 278.63358,79.44546 L 278.63358,79.20544 L 278.39358,78.72541 L 278.63358,78.48539 L 278.63358,78.00536 L 278.87357,77.76534 L 278.87357,77.28531 L 278.63358,77.28531 L 278.39358,77.28531 L 278.15359,77.28531 L 278.15359,77.04529 L 278.15359,76.80528 L 277.6736,76.56526 L 277.6736,76.32524 L 277.4336,76.08523 L 277.19361,76.08523 L 277.19361,75.84521 L 277.4336,75.60519 L 277.19361,75.12516 L 277.4336,74.88514 L 277.4336,74.64513 L 277.19361,72.96501 L 276.95361,72.48498 L 276.95361,72.24496 L 276.95361,71.76493 L 276.95361,71.52491 L 276.95361,71.04488 L 276.71362,71.04488 L 276.23363,70.32483 L 276.71362,70.56485 L 276.95361,70.32483 L 276.95361,70.08481 L 277.19361,70.08481 L 277.4336,70.08481 L 277.91359,70.08481 L 278.15359,70.32483 L 278.39358,70.08481 L 278.63358,69.8448 L 278.63358,69.60478 L 279.11356,69.60478 L 279.11356,69.36476 L 279.11356,69.12475 L 279.35356,69.12475 L 279.35356,68.88473 L 279.83355,68.64472 L 280.07354,68.4047 L 280.31354,68.4047 L 280.55353,68.4047 L 280.79353,68.64472 L 281.27352,67.92467 L 281.7535,67.68465 L 281.7535,67.44463 L 281.9935,67.44463 L 282.23349,67.20462 L 282.47349,67.44463 L 282.47349,67.68465 L 282.95348,68.16468 L 283.19347,67.92467 L 283.43347,67.92467 L 283.91345,67.92467 L 284.39344,68.16468 L 284.63344,67.92467 L 285.11343,68.16468 L 285.35342,68.16468 L 285.59342,68.4047 L 285.83341,68.16468 L 286.0734,68.16468 L 286.3134,68.4047 L 286.55339,68.64472 L 286.79339,68.64472 L 287.03338,68.64472 L 287.03338,68.16468 L 287.27338,67.92467 L 287.27338,67.68465 L 287.51337,67.44463 L 287.75337,67.44463 L 288.23335,67.68465 L 288.47335,67.68465 L 288.95334,67.68465 L 288.95334,67.44463 L 289.43333,67.44463 L 289.67332,67.44463 L 289.91332,67.92467 L 289.91332,68.16468 L 290.6333,68.64472 L 290.6333,69.12475 L 290.3933,68.88473 L 290.15331,69.12475 L 290.3933,69.36476 L 290.15331,69.36476 L 289.91332,69.36476 L 289.43333,69.60478 L 290.15331,69.60478 L 290.15331,70.08481 L 289.91332,70.08481 L 290.3933,70.32483 L 290.6333,70.08481 L 290.87329,70.08481 L 290.87329,70.32483 L 290.87329,70.56485 L 291.35328,70.56485 L 291.83327,70.80486 L 291.83327,71.04488 L 292.31326,71.04488 L 292.55326,71.04488 L 292.79325,71.2849 L 293.03324,71.52491 L 293.27324,71.52491 L 293.51323,71.2849 L 293.75323,71.04488 L 293.99322,71.04488 L 294.23322,71.04488 L 294.23322,71.2849 L 294.47321,71.2849 L 294.71321,71.52491 L 294.71321,71.76493 L 294.47321,71.76493 L 294.23322,71.76493 L 293.99322,71.76493 L 293.75323,72.00495 L 293.51323,71.76493 L 293.51323,72.00495 L 293.51323,72.24496 L 293.51323,72.00495 L 293.75323,72.00495 L 293.75323,72.24496 L 294.23322,72.48498 L 294.23322,72.725 L 294.47321,72.725 L 294.9532,72.48498 L 295.19319,72.725 L 295.67318,72.725 L 295.91318,73.20503 L 295.91318,73.68506 L 296.15317,73.92508 L 296.63316,74.16509 L 296.87316,74.16509 L 297.11315,74.16509 L 297.35314,74.40511 L 297.59314,74.40511 L 297.83313,74.64513 L 298.07313,74.88514 L 298.07313,75.36518 L 298.31312,75.36518 L 298.31312,75.60519 L 298.79311,75.60519 L 299.03311,75.12516 L 299.75309,74.88514 L 299.99308,75.12516 L 300.47307,75.60519 L 300.71307,75.84521 L 300.95306,75.84521 L 301.91304,75.60519 L 302.63302,75.36518 L 302.87302,75.12516 L 303.11301,75.12516 L 303.593,75.12516 L 303.83299,74.64513 L 304.31298,74.64513 L 304.55298,74.40511 L 305.03297,74.16509 L 305.03297,73.92508 L 305.27296,74.16509 L 305.51296,74.16509 L 305.99295,74.64513 L 306.23294,74.40511 L 306.47293,74.40511 L 306.71293,74.40511 L 306.47293,74.40511 L 306.71293,74.40511 L 306.95292,74.40511 L 307.19292,74.40511 L 307.43291,74.40511 L 307.9129,74.40511 L 308.1529,74.64513 L 308.1529,74.88514 L 308.63288,75.12516 L 308.87288,75.12516 L 309.11287,75.36518 L 309.11287,75.60519 L 309.35287,75.60519 L 309.35287,75.84521 L 309.59286,76.08523 L 309.83286,76.08523 L 310.31285,76.32524 L 310.07285,76.56526 L 310.07285,76.80528 L 309.83286,77.28531 L 310.31285,78.24537 L 310.79283,78.72541 L 310.79283,78.48539 L 311.03283,78.00536 L 311.03283,77.76534 L 311.03283,77.28531 L 311.51282,77.04529 L 311.27282,76.80528 L 311.51282,76.80528 L 311.75281,76.56526 L 311.99281,76.08523 L 311.99281,75.84521 L 311.99281,75.60519 L 311.99281,75.36518 L 312.2328,75.36518 L 312.4728,74.88514 L 312.4728,74.64513 L 312.4728,74.40511 L 312.95278,74.16509 L 313.19278,74.16509 L 313.19278,73.92508 L 313.43277,73.92508 L 313.43277,73.68506 L 313.67277,73.44504 L 314.15276,73.44504 L 314.15276,73.20503 L 314.39275,72.96501 L 314.39275,72.48498 L 314.63275,72.24496 L 314.87274,72.00495 L 314.87274,71.52491 L 315.35273,71.52491 L 315.59272,71.52491 L 315.83272,71.52491 L 316.07271,71.76493 L 316.31271,72.00495 L 316.5527,72.00495 L 317.03269,71.76493 L 317.03269,72.00495 L 317.27269,72.00495 L 317.75267,72.24496 L 317.99267,72.24496 L 318.23266,71.52491 L 318.23266,71.2849 L 319.19264,71.2849 L 319.43264,71.2849 L 319.67263,71.76493 L 319.91262,71.76493 L 320.15262,72.00495 L 320.8726,72.24496 L 321.35259,72.725 L 321.59259,72.725 L 321.83258,72.725 L 322.07257,72.48498 L 322.31257,72.48498 L 322.31257,72.725 L 322.55256,72.96501 L 322.55256,73.20503 L 322.79256,73.44504 L 322.79256,73.92508 L 322.31257,74.16509 L 322.31257,74.64513 L 322.31257,74.88514 L 322.55256,75.12516 L 322.31257,75.12516 L 322.31257,75.36518 L 322.07257,75.60519 L 322.07257,75.84521 L 321.83258,75.84521 L 321.59259,76.08523 L 321.83258,76.32524 L 322.31257,76.56526 L 322.31257,76.80528 L 322.55256,76.80528 L 322.79256,76.80528 L 322.79256,77.04529 L 323.03255,77.04529 L 323.27255,77.04529 L 323.75254,77.28531 L 323.75254,77.52533 L 323.75254,77.76534 L 324.23252,77.76534 L 324.47252,77.76534 L 324.71251,78.00536 L 324.71251,78.48539 L 324.71251,78.72541 L 324.47252,79.20544 L 324.71251,79.44546 L 324.71251,79.68547 L 324.47252,79.44546 L 324.71251,79.68547 L 324.71251,79.92549 L 324.47252,80.16551 L 324.47252,80.40552 L 324.23252,80.88556 L 323.99253,81.12557 L 323.75254,81.60561 L 323.75254,82.08564 L 323.51254,82.08564 L 323.51254,82.32565 L 323.27255,82.08564 L 323.03255,82.32565 z "
       id="path2662"
       style="fill:green;fill-rule:evenodd;stroke:#000000;stroke-opacity:1;stroke-width:0.07999892000000000;stroke-miterlimit:4;stroke-dasharray:none;fill-opacity:1" />
    <path
       transform="matrix(4.9999827,0,0,5.0001525,-1074.0975,184.40707)"
       clip-path="url(#SVG_CP_1)"
       d="M 299.03311,20.88143 L 299.2731,21.12145 L 299.51309,21.12145 L 299.75309,21.12145 L 299.75309,20.88143 L 299.75309,20.64142 L 299.99308,20.4014 L 299.99308,20.64142 L 300.23308,20.64142 L 300.47307,20.64142 L 300.47307,20.4014 L 300.95306,20.4014 L 300.95306,20.64142 L 300.95306,20.88143 L 300.95306,21.12145 L 300.95306,21.36147 L 301.19306,21.36147 L 300.95306,21.60148 L 301.19306,21.8415 L 301.43305,21.8415 L 301.67304,21.8415 L 301.67304,22.08152 L 301.43305,22.08152 L 301.67304,22.08152 L 301.43305,22.32153 L 301.43305,22.56155 L 301.67304,22.56155 L 301.67304,22.80157 L 301.43305,23.04158 L 301.43305,23.52162 L 301.67304,23.76163 L 301.91304,23.76163 L 301.91304,23.52162 L 301.91304,24.00165 L 301.91304,24.24167 L 301.91304,24.00165 L 301.91304,23.52162 L 301.91304,23.2816 L 302.15303,23.2816 L 302.15303,23.04158 L 302.39303,23.04158 L 302.63302,22.80157 L 302.39303,22.80157 L 302.39303,22.56155 L 302.39303,22.32153 L 302.39303,22.08152 L 302.63302,22.08152 L 303.11301,22.08152 L 303.35301,22.08152 L 303.35301,21.8415 L 303.35301,21.60148 L 303.35301,21.36147 L 303.593,21.36147 L 303.83299,21.60148 L 304.07299,21.12145 L 304.31298,21.60148 L 304.31298,21.8415 L 304.55298,21.8415 L 304.55298,21.60148 L 304.79297,21.8415 L 305.03297,21.60148 L 305.27296,21.8415 L 305.75295,21.8415 L 305.75295,22.08152 L 305.51296,22.08152 L 305.75295,22.08152 L 305.51296,22.08152 L 305.27296,22.32153 L 305.51296,22.56155 L 305.75295,22.56155 L 305.75295,22.80157 L 305.99295,22.80157 L 306.23294,22.80157 L 306.47293,22.80157 L 306.47293,23.04158 L 306.23294,23.04158 L 306.47293,23.04158 L 306.47293,22.80157 L 306.71293,22.80157 L 306.47293,23.04158 L 306.71293,23.04158 L 306.95292,23.04158 L 306.95292,23.2816 L 307.19292,23.2816 L 307.43291,23.2816 L 307.43291,23.52162 L 307.67291,23.52162 L 307.43291,23.52162 L 307.67291,23.52162 L 307.9129,23.76163 L 308.39289,24.00165 L 308.39289,23.76163 L 308.63288,24.00165 L 308.87288,24.00165 L 308.87288,24.48168 L 309.11287,24.7217 L 308.87288,24.48168 L 308.87288,24.7217 L 309.11287,24.96171 L 309.11287,25.20173 L 309.35287,25.20173 L 309.35287,25.44175 L 309.59286,25.44175 L 309.59286,25.68176 L 309.35287,25.68176 L 309.59286,25.92178 L 309.59286,25.68176 L 309.59286,25.92178 L 309.83286,25.92178 L 309.83286,26.1618 L 310.07285,26.40181 L 310.31285,26.88185 L 310.55284,27.12186 L 310.55284,27.36188 L 310.79283,27.36188 L 311.03283,27.6019 L 311.27282,27.6019 L 311.27282,27.84191 L 311.75281,28.08193 L 311.99281,28.08193 L 311.75281,28.32195 L 311.99281,28.32195 L 311.51282,28.56196 L 311.51282,28.80198 L 311.27282,28.80198 L 311.27282,28.56196 L 311.51282,28.80198 L 311.75281,28.80198 L 311.75281,29.04199 L 311.51282,29.04199 L 311.51282,29.28201 L 311.99281,29.04199 L 311.99281,28.80198 L 311.99281,28.56196 L 312.2328,28.56196 L 312.2328,28.32195 L 312.71279,28.56196 L 312.95278,28.80198 L 313.19278,28.80198 L 313.43277,28.80198 L 313.67277,28.80198 L 313.91276,28.80198 L 313.91276,29.04199 L 314.15276,29.04199 L 314.39275,29.04199 L 314.39275,29.28201 L 315.35273,29.04199 L 315.59272,29.28201 L 315.59272,29.04199 L 315.83272,29.04199 L 315.59272,29.04199 L 315.83272,28.80198 L 316.07271,29.04199 L 316.31271,29.04199 L 316.5527,29.28201 L 316.5527,29.04199 L 316.7927,29.04199 L 317.03269,29.28201 L 317.27269,29.28201 L 317.27269,29.04199 L 317.51268,29.28201 L 317.27269,29.04199 L 317.51268,29.04199 L 317.51268,29.28201 L 317.75267,29.28201 L 317.75267,29.52203 L 317.75267,29.28201 L 317.99267,29.28201 L 318.23266,29.52203 L 317.99267,29.52203 L 317.99267,29.76204 L 318.23266,29.76204 L 318.23266,30.00206 L 317.99267,30.48209 L 317.75267,30.96213 L 317.51268,31.44216 L 317.75267,31.68218 L 317.51268,31.92219 L 317.51268,32.40223 L 317.27269,32.64224 L 317.03269,32.64224 L 316.7927,32.88226 L 316.5527,32.88226 L 316.31271,33.36229 L 316.31271,33.60231 L 316.31271,33.84232 L 316.31271,33.60231 L 316.07271,33.84232 L 316.07271,34.08234 L 315.83272,34.08234 L 315.83272,34.32236 L 315.59272,34.32236 L 315.35273,34.32236 L 315.11273,34.56237 L 315.11273,34.32236 L 314.63275,34.08234 L 314.39275,34.32236 L 314.15276,34.08234 L 313.91276,34.08234 L 313.67277,34.32236 L 313.91276,34.56237 L 313.67277,34.80239 L 313.91276,35.04241 L 313.91276,35.28242 L 313.67277,35.04241 L 313.67277,35.28242 L 313.43277,35.52244 L 313.43277,35.76246 L 313.67277,35.76246 L 313.67277,36.00247 L 313.91276,36.24249 L 314.15276,36.48251 L 314.39275,36.24249 L 314.63275,36.00247 L 314.87274,36.00247 L 314.87274,36.24249 L 315.11273,36.48251 L 314.87274,36.96254 L 314.87274,37.20256 L 314.87274,37.44257 L 314.87274,37.68259 L 314.87274,38.16262 L 315.11273,38.16262 L 315.35273,38.40264 L 315.35273,38.88267 L 315.59272,38.88267 L 315.59272,39.3627 L 315.83272,39.3627 L 316.07271,39.60272 L 316.31271,39.60272 L 316.5527,39.3627 L 316.7927,39.3627 L 316.7927,39.60272 L 316.7927,40.08275 L 316.5527,40.32277 L 316.5527,40.56279 L 316.5527,40.8028 L 316.5527,41.52285 L 316.7927,41.76287 L 317.03269,42.00289 L 317.03269,42.2429 L 317.27269,42.48292 L 317.51268,42.48292 L 317.99267,43.20297 L 317.99267,42.96295 L 317.99267,42.72293 L 318.23266,42.72293 L 318.47266,43.44298 L 318.71265,43.44298 L 318.95265,43.683 L 319.43264,43.44298 L 319.43264,43.92302 L 319.43264,44.16303 L 319.19264,44.64307 L 318.95265,45.1231 L 319.19264,45.84315 L 319.43264,45.84315 L 319.67263,46.08317 L 319.67263,46.32318 L 320.15262,46.5632 L 320.15262,46.32318 L 320.39261,46.08317 L 320.63261,46.08317 L 320.8726,45.84315 L 321.1126,45.84315 L 321.35259,45.60313 L 321.59259,45.60313 L 321.83258,45.60313 L 321.83258,45.36312 L 321.83258,45.1231 L 322.07257,44.88308 L 322.07257,44.40305 L 322.31257,44.40305 L 322.31257,44.16303 L 322.31257,44.64307 L 322.55256,44.64307 L 322.79256,45.1231 L 323.03255,45.1231 L 323.27255,45.36312 L 323.27255,45.60313 L 323.51254,45.84315 L 323.51254,46.08317 L 323.75254,46.32318 L 323.51254,46.32318 L 323.51254,46.5632 L 323.51254,46.80321 L 323.51254,47.04323 L 323.03255,47.28325 L 322.79256,47.52326 L 322.55256,47.52326 L 322.55256,47.76328 L 322.31257,47.76328 L 322.07257,48.24331 L 321.59259,48.24331 L 321.35259,48.24331 L 321.1126,48.48333 L 320.8726,48.72335 L 320.63261,48.96336 L 320.39261,48.48333 L 320.15262,48.48333 L 320.15262,48.24331 L 319.91262,48.48333 L 319.91262,48.72335 L 319.67263,48.72335 L 319.67263,49.20338 L 319.43264,48.96336 L 319.43264,49.20338 L 319.43264,49.4434 L 319.19264,49.4434 L 319.19264,49.68341 L 319.19264,49.92343 L 319.19264,50.40346 L 318.95265,50.40346 L 318.95265,50.64348 L 318.95265,50.40346 L 318.71265,50.16345 L 318.47266,50.64348 L 318.23266,50.64348 L 318.23266,50.8835 L 318.47266,51.12351 L 318.47266,51.60354 L 318.71265,51.60354 L 318.71265,51.84356 L 318.95265,51.84356 L 318.95265,52.08358 L 319.19264,52.32359 L 319.19264,52.08358 L 319.43264,52.08358 L 319.19264,51.84356 L 319.19264,51.60354 L 319.19264,51.36353 L 319.19264,51.12351 L 319.19264,50.8835 L 319.19264,50.64348 L 319.43264,50.64348 L 319.43264,50.40346 L 319.67263,50.64348 L 319.91262,51.36353 L 320.15262,51.60354 L 320.39261,51.84356 L 320.63261,52.32359 L 321.1126,52.32359 L 321.59259,52.32359 L 321.83258,52.32359 L 322.07257,52.56361 L 322.07257,52.80363 L 322.79256,53.76369 L 322.79256,54.48374 L 322.55256,54.96378 L 322.79256,55.44381 L 323.03255,55.44381 L 322.31257,55.44381 L 322.55256,55.68382 L 322.79256,56.16386 L 323.03255,56.40387 L 323.03255,56.88391 L 323.27255,57.36394 L 322.79256,57.12392 L 322.79256,56.88391 L 322.55256,56.88391 L 322.79256,56.88391 L 321.59259,57.12392 L 322.07257,58.08399 L 322.07257,58.56402 L 322.31257,58.80404 L 322.55256,58.80404 L 322.31257,59.04406 L 322.55256,59.04406 L 322.07257,59.28407 L 322.07257,59.52409 L 321.83258,59.76411 L 321.59259,60.00412 L 321.83258,60.24414 L 321.59259,60.48415 L 321.35259,60.72417 L 321.1126,60.96419 L 320.8726,60.96419 L 320.63261,61.2042 L 320.63261,61.44422 L 320.39261,61.68424 L 319.43264,62.40429 L 319.19264,62.40429 L 318.95265,61.68424 L 318.71265,61.68424 L 318.47266,61.92425 L 318.71265,62.16427 L 318.47266,62.40429 L 318.47266,62.6443 L 318.47266,62.88432 L 317.99267,63.12434 L 317.75267,62.88432 L 317.51268,62.88432 L 317.27269,62.88432 L 316.7927,63.36435 L 317.03269,63.36435 L 316.7927,63.36435 L 316.5527,63.36435 L 316.31271,63.84439 L 316.07271,64.0844 L 316.5527,64.56443 L 316.5527,64.80445 L 316.7927,65.04447 L 316.7927,65.28448 L 317.03269,65.28448 L 316.7927,65.5245 L 317.03269,65.5245 L 316.7927,65.76452 L 317.03269,66.00453 L 317.27269,66.24455 L 317.03269,66.24455 L 316.7927,66.00453 L 316.7927,66.24455 L 316.5527,66.24455 L 316.31271,66.48457 L 316.07271,66.48457 L 315.83272,66.72458 L 316.07271,66.9646 L 315.83272,67.44463 L 316.07271,67.68465 L 315.83272,67.92467 L 316.07271,68.4047 L 316.31271,68.4047 L 316.31271,68.64472 L 315.83272,68.88473 L 315.59272,69.12475 L 315.59272,69.36476 L 315.35273,69.8448 L 315.11273,69.60478 L 315.35273,69.8448 L 315.11273,70.32483 L 315.35273,70.32483 L 315.35273,70.80486 L 315.11273,71.04488 L 315.11273,71.2849 L 314.87274,71.52491 L 314.87274,72.00495 L 314.63275,72.24496 L 314.39275,72.48498 L 314.39275,72.96501 L 314.15276,73.20503 L 314.15276,73.44504 L 313.67277,73.44504 L 313.43277,73.68506 L 313.43277,73.92508 L 313.19278,73.92508 L 313.19278,74.16509 L 312.95278,74.16509 L 312.4728,74.40511 L 312.4728,74.64513 L 312.4728,74.88514 L 312.2328,75.36518 L 311.99281,75.36518 L 311.99281,75.60519 L 311.99281,75.84521 L 311.99281,76.08523 L 311.75281,76.56526 L 311.51282,76.80528 L 311.27282,76.80528 L 311.51282,77.04529 L 311.03283,77.28531 L 311.03283,77.76534 L 311.03283,78.00536 L 310.79283,78.48539 L 310.79283,78.72541 L 310.31285,78.24537 L 309.83286,77.28531 L 310.07285,76.80528 L 310.07285,76.56526 L 310.31285,76.32524 L 309.83286,76.08523 L 309.59286,76.08523 L 309.35287,75.84521 L 309.35287,75.60519 L 309.11287,75.60519 L 309.11287,75.36518 L 308.87288,75.12516 L 308.63288,75.12516 L 308.1529,74.88514 L 308.1529,74.64513 L 307.9129,74.40511 L 307.43291,74.40511 L 307.19292,74.40511 L 306.95292,74.40511 L 306.71293,74.40511 L 306.47293,74.40511 L 306.71293,74.40511 L 306.47293,74.40511 L 306.23294,74.40511 L 305.99295,74.64513 L 305.51296,74.16509 L 305.27296,74.16509 L 305.03297,73.92508 L 305.03297,74.16509 L 304.55298,74.40511 L 304.31298,74.64513 L 303.83299,74.64513 L 303.593,75.12516 L 303.11301,75.12516 L 302.87302,75.12516 L 302.63302,75.36518 L 301.91304,75.60519 L 300.95306,75.84521 L 300.71307,75.84521 L 300.47307,75.60519 L 299.99308,75.12516 L 299.75309,74.88514 L 299.03311,75.12516 L 298.79311,75.60519 L 298.31312,75.60519 L 298.31312,75.36518 L 298.07313,75.36518 L 298.07313,74.88514 L 297.83313,74.64513 L 297.59314,74.40511 L 297.35314,74.40511 L 297.11315,74.16509 L 296.87316,74.16509 L 296.63316,74.16509 L 296.15317,73.92508 L 295.91318,73.68506 L 295.91318,73.20503 L 295.67318,72.725 L 295.19319,72.725 L 294.9532,72.48498 L 294.47321,72.725 L 294.23322,72.725 L 294.23322,72.48498 L 293.75323,72.24496 L 293.75323,72.00495 L 293.51323,72.00495 L 293.51323,72.24496 L 293.51323,72.00495 L 293.51323,71.76493 L 293.75323,72.00495 L 293.99322,71.76493 L 294.23322,71.76493 L 294.47321,71.76493 L 294.71321,71.76493 L 294.71321,71.52491 L 294.47321,71.2849 L 294.23322,71.2849 L 294.23322,71.04488 L 293.99322,71.04488 L 293.75323,71.04488 L 293.51323,71.2849 L 293.27324,71.52491 L 293.03324,71.52491 L 292.79325,71.2849 L 292.55326,71.04488 L 292.31326,71.04488 L 291.83327,71.04488 L 291.83327,70.80486 L 291.35328,70.56485 L 290.87329,70.56485 L 290.87329,70.32483 L 290.87329,70.08481 L 290.6333,70.08481 L 290.3933,70.32483 L 289.91332,70.08481 L 290.15331,70.08481 L 290.15331,69.60478 L 289.43333,69.60478 L 289.91332,69.36476 L 290.15331,69.36476 L 290.3933,69.36476 L 290.15331,69.12475 L 290.3933,68.88473 L 290.6333,69.12475 L 290.6333,68.64472 L 289.91332,68.16468 L 289.91332,67.92467 L 289.67332,67.44463 L 289.43333,67.44463 L 289.91332,67.20462 L 290.15331,66.72458 L 290.15331,66.48457 L 290.15331,66.24455 L 290.3933,66.00453 L 290.3933,65.76452 L 290.6333,65.76452 L 290.6333,65.28448 L 290.6333,65.04447 L 290.87329,64.0844 L 290.87329,63.60437 L 290.87329,63.36435 L 291.11329,63.12434 L 291.35328,62.88432 L 291.35328,62.6443 L 291.59328,62.6443 L 291.83327,62.40429 L 291.59328,61.92425 L 291.83327,61.68424 L 291.59328,61.68424 L 290.6333,61.2042 L 290.15331,60.96419 L 289.67332,60.72417 L 289.43333,60.48415 L 289.43333,60.24414 L 289.19333,60.24414 L 288.95334,59.52409 L 288.47335,59.04406 L 288.47335,58.80404 L 288.47335,57.84397 L 288.71334,57.60396 L 288.95334,57.12392 L 289.43333,56.64389 L 289.19333,56.64389 L 288.95334,56.40387 L 288.71334,56.40387 L 288.47335,56.64389 L 288.23335,56.40387 L 287.99336,56.40387 L 288.23335,56.16386 L 288.23335,55.92384 L 288.47335,55.68382 L 288.47335,55.44381 L 288.71334,55.44381 L 288.71334,55.20379 L 289.19333,55.20379 L 289.43333,54.96378 L 289.43333,54.72376 L 290.15331,54.24373 L 289.91332,53.52368 L 290.15331,53.28366 L 290.6333,53.04364 L 291.11329,52.32359 L 291.11329,51.36353 L 291.11329,50.8835 L 290.87329,50.40346 L 290.87329,49.92343 L 290.6333,48.96336 L 290.6333,48.48333 L 290.6333,48.24331 L 290.3933,47.76328 L 290.15331,47.52326 L 290.87329,47.04323 L 291.11329,46.80321 L 291.11329,46.5632 L 290.87329,46.32318 L 290.6333,45.84315 L 290.3933,45.1231 L 290.3933,44.64307 L 290.15331,43.683 L 290.3933,43.20297 L 290.15331,42.96295 L 289.91332,42.48292 L 290.6333,41.52285 L 290.6333,41.28284 L 291.11329,40.56279 L 291.35328,39.3627 L 291.35328,39.12269 L 290.87329,39.12269 L 290.6333,38.64265 L 290.87329,38.64265 L 291.11329,38.16262 L 291.59328,37.9226 L 291.83327,37.68259 L 292.07327,37.20256 L 292.31326,36.96254 L 292.55326,36.72252 L 292.79325,36.24249 L 292.55326,35.52244 L 292.79325,35.28242 L 292.55326,34.80239 L 292.31326,34.80239 L 292.31326,34.56237 L 292.55326,34.56237 L 292.55326,34.32236 L 293.03324,33.84232 L 293.27324,34.08234 L 293.27324,33.84232 L 293.51323,34.08234 L 293.99322,34.32236 L 294.23322,34.32236 L 294.71321,34.32236 L 294.9532,33.60231 L 295.19319,33.36229 L 294.9532,33.12228 L 295.19319,33.12228 L 294.9532,33.12228 L 295.19319,32.88226 L 295.67318,32.40223 L 295.67318,32.64224 L 295.91318,32.64224 L 295.91318,32.40223 L 296.15317,31.92219 L 296.15317,31.68218 L 296.15317,31.44216 L 296.39317,31.44216 L 296.39317,30.96213 L 296.87316,30.48209 L 296.63316,30.24208 L 296.87316,30.00206 L 297.11315,30.00206 L 297.11315,29.76204 L 297.11315,29.52203 L 297.11315,29.28201 L 297.11315,29.04199 L 296.87316,29.04199 L 297.11315,28.80198 L 297.11315,28.56196 L 296.87316,28.56196 L 296.87316,28.32195 L 297.11315,28.32195 L 296.87316,28.32195 L 297.11315,28.32195 L 296.87316,28.08193 L 297.11315,28.08193 L 297.11315,27.84191 L 297.35314,27.6019 L 297.35314,27.36188 L 297.11315,27.36188 L 297.35314,27.12186 L 297.83313,27.12186 L 298.07313,27.36188 L 298.07313,27.12186 L 298.07313,26.88185 L 298.07313,26.40181 L 297.83313,26.40181 L 297.83313,26.1618 L 298.07313,26.1618 L 297.83313,25.92178 L 298.07313,25.92178 L 297.83313,25.68176 L 297.59314,25.44175 L 297.83313,25.44175 L 298.07313,25.44175 L 298.07313,25.20173 L 298.31312,24.96171 L 298.31312,24.7217 L 298.31312,24.48168 L 298.55312,24.7217 L 298.55312,24.48168 L 298.79311,24.7217 L 299.03311,24.48168 L 299.03311,24.24167 L 298.79311,23.76163 L 298.55312,23.52162 L 298.55312,23.2816 L 298.31312,22.80157 L 298.55312,23.04158 L 298.79311,23.04158 L 298.79311,22.80157 L 299.03311,22.56155 L 298.79311,22.56155 L 298.79311,22.32153 L 298.79311,22.08152 L 298.79311,21.8415 L 299.03311,21.8415 L 299.03311,21.60148 L 299.03311,21.36147 L 299.03311,20.88143 z "
       id="path2996"
       style="fill:steelblue;fill-rule:evenodd;stroke:#000000;stroke-opacity:1;stroke-width:0.07999892000000000;stroke-miterlimit:4;stroke-dasharray:none;fill-opacity:1" />

  <!-- Provincias -->
       <text x="260" y="510">
         Pontevedra
       </text>
       <text x="285" y="520" font-size="50">
         .         
       </text>

       <text x="260" y="420">
         Corua
       </text>
       <text x="270" y="430" font-size="50">
         .         
       </text>

       <text x="380" y="600">
         Ourense
       </text>
       <text x="395" y="610" font-size="50">
         .         
       </text>

       <text x="430" y="420">
         Lugo
       </text>
       <text x="433" y="432" font-size="50">
         .         
       </text>
<!-- pueblo -->
       <text x="261" y="538">
         Poio
       </text>
       <text x="252" y="543" font-size="30">
         .         
       </text>

<!-- Montaa-->

       <polygon points="480,600 490,580 500,600" fill="white"/>
       <text x="500" y="593">
         Manzaneda
       </text>

<!-- Rio-->

<text x="455" y="500">
   Navia
 </text>
 <text x="490" y="500" font-size="30">
   .         
 </text>

 <!-- Cabo-->

 <text x="335" y="320">
   Cabo Prior
 </text>
 <text x="320" y="320" font-size="30">
   .         
 </text>
<!-- Capitales -->

<text x="275" y="460">
   Santiago
 </text>
 <text x="290" y="450" font-size="40">
   .         
 </text>

<!-- Rosa de los vientos-->
       <g transform="scale(0.17) translate(300,1200)">
         <g>
            <g>
               <path d="M608.411,956.687c-197.052,0-357.365-160.314-357.365-357.365s160.314-357.365,357.365-357.365
                  c197.055,0,357.368,160.314,357.368,357.365S805.465,956.687,608.411,956.687z M608.411,253.588
                  c-190.64,0-345.734,155.094-345.734,345.734s155.094,345.734,345.734,345.734s345.736-155.094,345.736-345.734
                  S799.05,253.588,608.411,253.588z"/>
            </g>
            <g>
               <g>
                  <g>
                     <g>
                        <polygon points="611.254,177.636 599.176,223.452 623.333,223.451 						"/>
                        <polygon points="611.264,1018.231 599.187,972.415 623.344,972.415 						"/>
                     </g>
                     <g>
                        <polygon points="1031.553,597.934 985.738,585.856 985.738,610.013 						"/>
                        <polygon points="190.955,597.934 236.77,585.856 236.77,610.013 						"/>
                     </g>
                  </g>
                  <g>
                     <g>
                        <polygon points="401.104,233.946 413.552,279.663 434.472,267.584 						"/>
                        <polygon points="821.404,961.925 788.036,928.287 808.957,916.208 						"/>
                     </g>
                     <g>
                        <polygon points="975.243,387.785 929.527,400.233 941.606,421.154 						"/>
                        <polygon points="247.264,808.085 280.903,774.717 292.981,795.637 						"/>
                     </g>
                  </g>
                  <g>
                     <g>
                        <polygon points="247.264,387.785 280.903,421.153 292.981,400.233 						"/>
                        <polygon points="975.244,808.085 929.527,795.637 941.606,774.716 						"/>
                     </g>
                     <g>
                        <polygon points="821.39,233.96 788.022,267.598 808.943,279.677 						"/>
                        <polygon points="401.105,961.925 413.553,916.208 434.473,928.287 						"/>
                     </g>
                  </g>
               </g>
               <g>
                  <g>
                     <g>
                        <polygon points="716.122,191.133 692.914,232.441 716.296,238.514 						"/>
                        <polygon points="504.805,1004.737 504.632,957.356 528.013,963.429 						"/>
                     </g>
                     <g>
                        <polygon points="1017.267,703.591 975.959,680.384 969.886,703.765 						"/>
                        <polygon points="203.662,492.277 251.043,492.104 244.97,515.485 						"/>
                     </g>
                  </g>
                  <g>
                     <g>
                        <polygon points="498.565,192.806 499.12,240.184 522.406,233.752 						"/>
                        <polygon points="722.363,1003.065 698.523,962.119 721.808,955.687 						"/>
                     </g>
                     <g>
                        <polygon points="1015.594,486.036 968.216,486.591 974.648,509.876 						"/>
                        <polygon points="205.334,709.834 246.281,685.994 252.712,709.279 						"/>
                     </g>
                  </g>
                  <g>
                     <g>
                        <polygon points="310.992,303.032 335.162,343.785 352.112,326.572 						"/>
                        <polygon points="909.935,892.839 868.816,869.298 885.766,852.086 						"/>
                     </g>
                     <g>
                        <polygon points="905.35,298.474 864.598,322.644 881.81,339.593 						"/>
                        <polygon points="315.56,897.406 339.101,856.287 356.313,873.237 						"/>
                     </g>
                  </g>
               </g>
            </g>
            <g>
               <path d="M657.061,525.251c2.079,19.496,2.43,23.219,2.423,23.988c0.047,0.006,0.094-0.009,0.139,0.006
                  c0.209,0.023,9.076,0.987,24.151,2.626l108.038-137.387L657.061,525.251z"/>
               <path d="M657.061,525.251l134.751-110.767L683.774,551.871c0.544,0.059,1.142,0.124,1.702,0.185l115.746-147.193L656.875,523.508
                  C656.938,524.104,657,524.682,657.061,525.251z"/>
               <path d="M622.106,608.351l-8.43-8.43l-0.217,0.002C615.932,602.365,618.885,605.24,622.106,608.351z"/>
               <path d="M795.77,780.879L683.29,644.025l-22.664,2.462c-0.028,0.003-0.054,0.003-0.079,0.003c-0.06,0-0.104-0.052-0.16-0.067
                  c-0.321,2.799-1.33,11.916-2.855,25.747L795.77,780.879z"/>
               <path d="M613.676,599.921l-0.104-0.103h-0.221c0.034,0.034,0.072,0.071,0.107,0.106L613.676,599.921z"/>
               <path d="M683.29,644.025l112.48,136.854L657.53,672.171c-0.063,0.562-0.124,1.126-0.187,1.703l148.049,116.423L685.002,643.839
                  L683.29,644.025z"/>
               <path d="M425.424,418.456l109.406,133.099c15.64-1.739,25.647-2.86,27.895-3.127l2.192-20.185
                  C517.172,490.663,445.341,434.131,425.424,418.456z"/>
               <path d="M534.831,551.555L425.424,418.456c19.917,15.674,91.747,72.206,139.494,109.786l0.183-1.689
                  c-27.672-21.798-72.235-56.869-144.05-113.388l-5.273-4.152l117.327,142.733C533.68,551.683,534.269,551.617,534.831,551.555z"/>
               <polygon points="431.862,782.796 565.49,672.957 562.632,646.654 540.178,644.21 			"/>
               <polygon points="565.49,672.957 431.862,782.796 540.178,644.21 538.476,644.025 422.579,792.312 565.678,674.687 			"/>
               <polygon fill="#FFFFFF" points="660.813,645.002 1077.39,599.747 1072.38,599.747 615.629,599.818 			"/>
               <path d="M1072.38,599.747h5.01l-416.577,45.255l-45.184-45.184l-2.056,0l0.104,0.103l8.43,8.43
                  c9.422,9.101,21.038,20.136,28.966,27.668c4.924,4.677,8.482,8.059,9.224,8.798c0.168,0.168,0.244,0.409,0.202,0.645v0.003
                  c-0.012,0.084-0.055,0.456-0.112,0.959c0.057,0.015,0.1,0.067,0.16,0.067c0.026,0,0.051,0,0.079-0.003l22.664-2.462l1.712-0.186
                  l405.891-44.094L1072.38,599.747z"/>
               <path fill="#FFFFFF" d="M575.322,635.077c-4.916,4.875-9.011,8.938-11.267,11.183c-0.001,0.003-0.001,0.006-0.001,0.009
                  l45.885,422.382V600.59C603.577,607.056,587.35,623.148,575.322,635.077z"/>
               <path d="M610.063,600.463c-0.043,0.044-0.08,0.082-0.124,0.127v468.061l-45.885-422.382c0.001-0.003,0.001-0.006,0.001-0.009
                  c-0.079,0.079-0.174,0.173-0.248,0.247c-0.136,0.136-0.324,0.213-0.514,0.213c-0.026,0-0.051,0-0.08-0.003l-0.581-0.063
                  l2.858,26.303l0.188,1.73l44.264,407.467c-0.003-0.028-0.003-0.054-0.003-0.079L610.063,600.463z"/>
               <path d="M611.392,1079.535c2.97-27.131,13.159-120.156,23.357-213.182c6.057-55.268,12.12-110.535,16.675-151.99
                  c5.813-52.913,7.202-65.542,7.719-68.643c-0.948-0.931-4.393-4.203-9.07-8.647c-10.984-10.433-29.042-27.588-38.556-37.025
                  L611.392,1079.535z"/>
               <path d="M657.53,672.171c1.525-13.831,2.534-22.948,2.855-25.747c0.057-0.502,0.1-0.874,0.112-0.959v-0.003
                  c0.043-0.236-0.034-0.477-0.202-0.645c-0.741-0.738-4.299-4.12-9.224-8.798c-7.929-7.532-19.545-18.568-28.966-27.668
                  c-3.221-3.112-6.174-5.987-8.647-8.428c-0.035-0.034-0.073-0.072-0.107-0.106l-2.657,0c-0.195,0.2-0.412,0.42-0.633,0.645
                  l-0.124,481.611c0,0.026,0,0.051,0.003,0.079l0.591,5.418c0.04,0.366,0.349,0.647,0.721,0.647s0.682-0.278,0.721-0.647
                  c0.41-3.723,34.669-316.626,45.368-413.698C657.406,673.296,657.468,672.733,657.53,672.171z M650.073,637.073
                  c4.677,4.444,8.122,7.716,9.07,8.647c-0.517,3.101-1.905,15.729-7.719,68.643c-4.555,41.455-10.618,96.723-16.675,151.99
                  c-10.198,93.025-20.387,186.05-23.357,213.182l0.125-479.487C621.031,609.485,639.089,626.64,650.073,637.073z"/>
               <polygon points="609.938,127.227 564.193,548.382 609.938,594.128 			"/>
               <path d="M564.918,528.243l-2.192,20.185c0.088-0.01,0.233-0.027,0.297-0.035c0.04-0.028,0.085-0.048,0.131-0.065
                  c0.261-0.091,0.562-0.094,0.761,0.108c9.925,9.928,31.059,30.883,42.412,42.142c1.349,1.338,2.551,2.53,3.612,3.582v-0.032
                  l-45.746-45.746l45.746-421.155v-13.429l0.009-0.086c-0.001,0.003-0.004,0.004-0.004,0.007l-44.843,412.835L564.918,528.243z"/>
               <path fill="#FFFFFF" d="M658.164,548.677c-1.363-12.719-40.45-373.843-46.774-432.296l0.003,479.22
                  c0.113,0.112,0.241,0.239,0.348,0.345c3.561-3.476,7.829-7.666,12.329-12.096C636.033,571.382,652.277,554.451,658.164,548.677z"
                  />
               <path d="M609.938,127.227v466.901v0.032c0.525,0.521,1.012,1.003,1.454,1.442l-0.003-479.22
                  c6.324,58.452,45.411,419.576,46.774,432.296c-5.887,5.774-22.13,22.705-34.094,35.174c15.714-15.472,34.192-33.81,34.799-34.427
                  c0.162-0.164,0.394-0.212,0.616-0.185c0.007-0.77-0.344-4.492-2.423-23.988c-0.061-0.568-0.123-1.147-0.186-1.742
                  c-2.88-26.964-8.844-82.076-21.058-194.928l-23.84-220.28c-0.043-0.369-0.352-0.649-0.724-0.649s-0.682,0.28-0.724,0.649
                  l-0.581,5.411l-0.009,0.086V127.227z"/>
               <path d="M563.025,645.232c2.258-2.249,6.367-6.324,11.271-11.189c11.859-11.759,27.816-27.583,34.35-34.214l-463.53-0.079
                  L563.025,645.232z"/>
               <path d="M540.178,644.21l22.454,2.444l0.581,0.063c0.028,0.003,0.054,0.003,0.08,0.003c0.19,0,0.378-0.077,0.514-0.213
                  c0.075-0.074,0.17-0.169,0.248-0.247c2.255-2.245,6.35-6.307,11.267-11.183c12.029-11.929,28.256-28.021,34.617-34.487
                  c0.044-0.045,0.081-0.083,0.124-0.127c0.221-0.225,0.437-0.445,0.633-0.645l-1.14,0c-0.084,0-0.155-0.043-0.233-0.071H131.695
                  l-0.087-0.009c0.003,0,0.004,0.003,0.007,0.004l406.86,44.283L540.178,644.21z M608.646,599.83
                  c-6.534,6.631-22.491,22.454-34.35,34.214c-4.904,4.865-9.013,8.94-11.271,11.189L145.116,599.75L608.646,599.83z"/>
               <path fill="#FFFFFF" d="M605.301,591.609c-11.263-11.169-32.146-31.879-42.173-41.904c-5.762,0.883-51.971,6.015-434.746,48.225
                  l3.394,0.366l477.558-0.003c0.441-0.429,0.895-0.871,1.367-1.331C609.324,595.598,607.486,593.775,605.301,591.609z"/>
               <path d="M609.322,599.747c-0.191-0.068-0.361-0.187-0.44-0.383c-0.111-0.273-0.045-0.588,0.168-0.795
                  c0.091-0.088,0.191-0.186,0.283-0.275l-477.558,0.003l-3.394-0.366c382.776-42.21,428.984-47.342,434.746-48.225
                  c10.027,10.024,30.911,30.735,42.173,41.904c2.185,2.167,4.023,3.989,5.398,5.354c0.339-0.33,0.688-0.671,1.041-1.015
                  c-0.107-0.106-0.235-0.233-0.348-0.345c-0.442-0.439-0.929-0.921-1.454-1.442c-1.061-1.052-2.263-2.244-3.612-3.582
                  c-11.353-11.26-32.487-32.214-42.412-42.142c-0.199-0.202-0.5-0.199-0.761-0.108c-0.045,0.017-0.091,0.037-0.131,0.065
                  c-0.064,0.008-0.209,0.025-0.297,0.035c-2.248,0.267-12.255,1.388-27.895,3.127c-0.562,0.062-1.151,0.128-1.727,0.192
                  c-98.931,10.998-407.792,45.058-411.487,45.467c-0.369,0.04-0.647,0.352-0.647,0.721c0,0.372,0.281,0.682,0.647,0.724
                  l9.992,1.078l0.087,0.009H609.322z"/>
               <path d="M659.666,550.682c-3.09,3.084-33.381,33.132-48.322,47.683l479.47-0.071l3.277-0.358
                  C704.369,555.575,663.931,551.167,659.666,550.682z"/>
               <path d="M1100.89,597.212c-3.756-0.407-321.569-34.954-415.413-45.156c-0.561-0.061-1.158-0.126-1.702-0.185
                  c-15.075-1.639-23.942-2.603-24.151-2.626c-0.045-0.015-0.092,0-0.139-0.006c-0.222-0.027-0.454,0.021-0.616,0.185
                  c-0.606,0.617-19.085,18.956-34.799,34.427c-4.5,4.43-8.768,8.62-12.329,12.096c-0.353,0.345-0.702,0.685-1.041,1.015
                  c-0.471,0.46-0.926,0.902-1.367,1.331c-0.092,0.09-0.192,0.187-0.283,0.275c-0.213,0.207-0.278,0.523-0.168,0.795
                  c0.079,0.196,0.249,0.315,0.44,0.383c0.077,0.028,0.148,0.071,0.233,0.071l1.14,0l2.657,0h0.221l2.056,0l456.752-0.07
                  l18.513-0.003l9.996-1.088c0.369-0.04,0.647-0.349,0.647-0.721S1101.259,597.254,1100.89,597.212z M1090.814,598.293
                  l-479.47,0.071c14.94-14.551,45.232-44.599,48.322-47.683c4.265,0.486,44.704,4.893,434.425,47.254L1090.814,598.293z"/>
            </g>
         </g>
         <g>
            <g>
               <path d="M629.3,51.285v45.935h-9.442l-23.138-43.64V95.94h3.711v1.279h-9.244V95.94h3.711V51.285h-3.711V50h18.62l17.67,33.864
                  V51.285h-3.711V50h9.244v1.285H629.3z"/>
               <path d="M613.45,1148.584c2.245,0,4.238-0.609,5.967-1.823c1.729-1.213,2.596-3.047,2.596-5.495c0-2.454-0.933-4.331-2.8-5.632
                  c-1.866-1.307-4.518-2.443-7.96-3.409c-3.436-0.966-5.934-1.812-7.487-2.531c-1.548-0.719-3.025-1.663-4.419-2.833
                  c-2.789-2.338-4.177-5.956-4.177-10.858c0-4.002,1.427-7.444,4.282-10.32c2.854-2.876,6.757-4.32,11.703-4.32
                  c2.382,0,4.864,0.351,7.455,1.048c2.586,0.697,4.188,1.043,4.82,1.043s1.191-0.45,1.685-1.35h0.747l0.472,13.63h-1.081
                  c-2.157-3.914-4.419-7.054-6.779-9.414c-2.36-2.36-4.924-3.541-7.691-3.541c-2.767,0-4.913,0.642-6.439,1.921
                  c-1.532,1.285-2.295,2.992-2.295,5.127c0,2.141,0.911,3.782,2.734,4.924c1.817,1.147,4.057,2.08,6.708,2.8
                  c2.657,0.719,4.397,1.219,5.231,1.488c0.829,0.269,1.861,0.637,3.102,1.109c1.235,0.472,2.245,0.972,3.036,1.488
                  c0.785,0.516,1.619,1.169,2.492,1.954c0.878,0.791,1.565,1.652,2.059,2.596c1.213,2.157,1.822,4.721,1.822,7.691
                  c0,4.858-1.515,8.761-4.551,11.703c-3.036,2.948-7.032,4.419-11.978,4.419c-2.564,0-5.495-0.34-8.799-1.01
                  c-3.305-0.675-5.138-1.016-5.5-1.016c-0.626,0-1.235,0.675-1.817,2.026h-0.944l-0.675-16.056h1.147
                  c1.976,3.914,4.507,7.334,7.586,10.254C606.78,1147.124,610.03,1148.584,613.45,1148.584z"/>
            </g>
            <g>
               <path d="M1108.389,573.838h35.077l0.675,13.356h-1.213c-1.894-4.54-3.87-7.652-5.939-9.337c-2.069-1.691-5.105-2.531-9.107-2.531
                  h-2.36v20.843h2.295c2.113,0,3.886-0.801,5.33-2.393c1.438-1.597,2.448-3.744,3.036-6.445h1.01v19.965h-1.147
                  c-0.807-3.37-1.899-5.775-3.272-7.219c-1.372-1.438-3.25-2.157-5.632-2.157h-1.619v21.656h2.564
                  c4.139,0,7.658-1.241,10.556-3.711c2.904-2.476,4.891-5.643,5.972-9.513h1.345l-0.538,14.706h-37.031v-1.482h3.98v-44.25h-3.98
                  V573.838z"/>
               <path d="M82.235,607.095l5.599-19.427l-4.046-12.884H79.94v-1.284h20.914v1.284h-3.98l10.051,31.904l8.091-31.904h-6.812v-1.284
                  h13.493v1.284h-4.452l-12.411,46.61h-6.005l-9.985-30.488l-8.767,30.488H74.21l-17.001-46.61h-3.167v-1.284h21.919v1.284H71.24
                  L82.235,607.095z"/>
            </g>
         </g>
      </g>
  </svg>